<svg width="300" height="50" viewBox="0 0 300 50" fill="none" xmlns="http://www.w3.org/2000/svg">
<rect width="300" height="50" rx="15" fill="#9600DD"/>
<path d="M123.041 36V16.76H125.095V25.197H134.494V16.76H136.548V36H134.494V27.056H125.095V36H123.041ZM145.33 36.247C143.544 36.247 142.158 35.6577 141.17 34.479C140.182 33.2917 139.688 31.4543 139.688 28.967C139.688 26.4623 140.177 24.625 141.157 23.455C142.136 22.2763 143.527 21.687 145.33 21.687C147.124 21.687 148.51 22.2763 149.49 23.455C150.469 24.6337 150.959 26.4667 150.959 28.954C150.959 31.4413 150.465 33.2787 149.477 34.466C148.497 35.6533 147.115 36.247 145.33 36.247ZM145.33 34.596C146.092 34.596 146.734 34.4227 147.254 34.076C147.782 33.7207 148.185 33.1313 148.463 32.308C148.749 31.4847 148.892 30.3797 148.892 28.993C148.892 27.5803 148.749 26.458 148.463 25.626C148.185 24.794 147.787 24.2047 147.267 23.858C146.747 23.5113 146.101 23.338 145.33 23.338C144.558 23.338 143.913 23.5113 143.393 23.858C142.873 24.2047 142.47 24.7897 142.184 25.613C141.906 26.4277 141.768 27.5283 141.768 28.915C141.768 30.3277 141.906 31.4543 142.184 32.295C142.47 33.127 142.873 33.7207 143.393 34.076C143.913 34.4227 144.558 34.596 145.33 34.596ZM167.185 21.687C168.407 21.687 169.377 22.064 170.097 22.818C170.816 23.5633 171.176 24.7767 171.176 26.458V36H169.161V26.536C169.161 24.508 168.337 23.494 166.691 23.494C166.119 23.494 165.542 23.6413 164.962 23.936C164.381 24.2307 163.896 24.6987 163.506 25.34C163.54 25.6433 163.558 25.9987 163.558 26.406V36H161.556V26.536C161.556 25.444 161.343 24.664 160.919 24.196C160.503 23.728 159.913 23.494 159.151 23.494C158.561 23.494 157.963 23.6543 157.357 23.975C156.759 24.2957 156.269 24.7897 155.888 25.457V36H153.86V21.895H155.563L155.719 23.481H155.849C156.351 22.883 156.932 22.4367 157.591 22.142C158.249 21.8387 158.956 21.687 159.71 21.687C161.356 21.687 162.479 22.3543 163.077 23.689C163.649 22.987 164.29 22.48 165.001 22.168C165.711 21.8473 166.439 21.687 167.185 21.687ZM184.392 29.63H176.007C176.033 30.8607 176.206 31.8357 176.527 32.555C176.856 33.2743 177.337 33.7943 177.97 34.115C178.611 34.427 179.443 34.583 180.466 34.583C181.41 34.583 182.494 34.4053 183.716 34.05V35.727C182.528 36.0737 181.367 36.247 180.232 36.247C178.819 36.247 177.649 36.0043 176.722 35.519C175.803 35.025 175.11 34.2407 174.642 33.166C174.174 32.0913 173.94 30.683 173.94 28.941C173.94 26.4797 174.412 24.6553 175.357 23.468C176.301 22.2807 177.619 21.687 179.309 21.687C180.955 21.687 182.212 22.2763 183.079 23.455C183.954 24.6337 184.392 26.4797 184.392 28.993V29.63ZM179.296 23.169C178.273 23.169 177.476 23.5547 176.904 24.326C176.34 25.0973 176.041 26.3973 176.007 28.226H182.429C182.411 26.9693 182.273 25.9683 182.013 25.223C181.761 24.4777 181.41 23.949 180.96 23.637C180.509 23.325 179.954 23.169 179.296 23.169Z" fill="white"/>
</svg>
