<svg width="300" height="50" viewBox="0 0 300 50" fill="none" xmlns="http://www.w3.org/2000/svg">
<rect width="300" height="50" rx="15" fill="#9600DD"/>
<path d="M106.041 36V16.76H108.095V34.206H116.909V36H106.041ZM122.771 21.687C123.941 21.687 124.898 21.8473 125.644 22.168C126.398 22.48 126.961 23 127.334 23.728C127.715 24.456 127.906 25.4397 127.906 26.679V36H126.203L126.047 34.453H125.917C125.492 35.0337 124.955 35.4757 124.305 35.779C123.655 36.0737 122.935 36.221 122.147 36.221C121.323 36.221 120.604 36.0693 119.989 35.766C119.373 35.4627 118.901 35.025 118.572 34.453C118.242 33.881 118.078 33.1963 118.078 32.399C118.078 31.1423 118.472 30.1717 119.261 29.487C120.058 28.7937 121.297 28.369 122.979 28.213L125.904 27.901V26.575C125.904 25.743 125.778 25.093 125.527 24.625C125.284 24.157 124.916 23.8277 124.422 23.637C123.936 23.4463 123.295 23.351 122.498 23.351C121.969 23.351 121.393 23.403 120.769 23.507C120.145 23.6023 119.538 23.7497 118.949 23.949V22.272C119.495 22.09 120.11 21.947 120.795 21.843C121.488 21.739 122.147 21.687 122.771 21.687ZM122.667 34.648C123.273 34.648 123.858 34.5093 124.422 34.232C124.985 33.9547 125.479 33.5083 125.904 32.893V29.292L123.109 29.578C122.086 29.682 121.336 29.9507 120.86 30.384C120.383 30.8087 120.145 31.411 120.145 32.191C120.145 33.0057 120.357 33.621 120.782 34.037C121.215 34.4443 121.843 34.648 122.667 34.648ZM140.215 21.895H142.282L135.288 41.72H133.26L135.301 36H134.69L129.724 21.895H131.882L136.016 34.193L140.215 21.895ZM149.074 36.247C147.289 36.247 145.902 35.6577 144.914 34.479C143.926 33.2917 143.432 31.4543 143.432 28.967C143.432 26.4623 143.922 24.625 144.901 23.455C145.88 22.2763 147.271 21.687 149.074 21.687C150.868 21.687 152.255 22.2763 153.234 23.455C154.213 24.6337 154.703 26.4667 154.703 28.954C154.703 31.4413 154.209 33.2787 153.221 34.466C152.242 35.6533 150.859 36.247 149.074 36.247ZM149.074 34.596C149.837 34.596 150.478 34.4227 150.998 34.076C151.527 33.7207 151.93 33.1313 152.207 32.308C152.493 31.4847 152.636 30.3797 152.636 28.993C152.636 27.5803 152.493 26.458 152.207 25.626C151.93 24.794 151.531 24.2047 151.011 23.858C150.491 23.5113 149.845 23.338 149.074 23.338C148.303 23.338 147.657 23.5113 147.137 23.858C146.617 24.2047 146.214 24.7897 145.928 25.613C145.651 26.4277 145.512 27.5283 145.512 28.915C145.512 30.3277 145.651 31.4543 145.928 32.295C146.214 33.127 146.617 33.7207 147.137 34.076C147.657 34.4227 148.303 34.596 149.074 34.596ZM161.647 36.234C160.356 36.234 159.337 35.8613 158.592 35.116C157.847 34.3707 157.474 33.1573 157.474 31.476V21.895H159.502V31.398C159.502 32.4813 159.727 33.257 160.178 33.725C160.629 34.193 161.266 34.427 162.089 34.427C162.713 34.427 163.346 34.271 163.987 33.959C164.628 33.647 165.153 33.1703 165.56 32.529V21.895H167.588V36H165.885L165.729 34.479H165.599C165.079 35.0597 164.477 35.4973 163.792 35.792C163.116 36.0867 162.401 36.234 161.647 36.234ZM176.775 34.479C177.235 34.479 177.755 34.414 178.335 34.284V36.013C177.668 36.169 177.005 36.247 176.346 36.247C174.968 36.247 173.915 35.8873 173.187 35.168C172.468 34.4487 172.108 33.322 172.108 31.788V23.585H169.573V21.895H172.108L172.433 16.76H174.136V21.895H178.127V23.585H174.136V31.476C174.136 32.5767 174.344 33.3523 174.76 33.803C175.185 34.2537 175.857 34.479 176.775 34.479ZM183.091 36.247C181.791 36.247 180.595 36.065 179.503 35.701V34.05C180.734 34.4313 181.926 34.622 183.078 34.622C184.153 34.622 184.963 34.4183 185.509 34.011C186.055 33.595 186.328 33.0013 186.328 32.23C186.328 31.58 186.164 31.0817 185.834 30.735C185.514 30.3797 184.998 30.111 184.287 29.929L182.636 29.552C181.423 29.2573 180.548 28.8023 180.01 28.187C179.482 27.563 179.217 26.744 179.217 25.73C179.217 24.9327 179.417 24.2307 179.815 23.624C180.214 23.0173 180.808 22.545 181.596 22.207C182.394 21.8603 183.364 21.687 184.508 21.687C185.583 21.687 186.601 21.804 187.563 22.038V23.689C186.61 23.4377 185.609 23.312 184.56 23.312C183.399 23.312 182.541 23.5287 181.986 23.962C181.44 24.3953 181.167 24.963 181.167 25.665C181.167 26.263 181.323 26.7397 181.635 27.095C181.947 27.4503 182.45 27.7147 183.143 27.888L184.794 28.252C186.034 28.5553 186.922 29.019 187.459 29.643C187.997 30.2583 188.265 31.0903 188.265 32.139C188.265 32.9883 188.062 33.7207 187.654 34.336C187.256 34.9513 186.666 35.4237 185.886 35.753C185.115 36.0823 184.183 36.247 183.091 36.247Z" fill="white"/>
</svg>
