<svg width="300" height="50" viewBox="0 0 300 50" fill="none" xmlns="http://www.w3.org/2000/svg">
<rect width="300" height="50" rx="15" fill="#9600DD"/>
<path d="M63.041 36V16.76H65.095V34.206H73.909V36H63.041ZM75.9086 36V21.895H77.9366V36H75.9086ZM76.9226 18.814C76.4632 18.814 76.1079 18.7013 75.8566 18.476C75.6139 18.2507 75.4926 17.9343 75.4926 17.527C75.4926 17.1197 75.6139 16.8033 75.8566 16.578C76.1079 16.344 76.4632 16.227 76.9226 16.227C77.3732 16.227 77.7199 16.344 77.9626 16.578C78.2139 16.8033 78.3396 17.1197 78.3396 17.527C78.3396 17.9343 78.2139 18.2507 77.9626 18.476C77.7199 18.7013 77.3732 18.814 76.9226 18.814ZM85.5233 41.98C84.8906 41.98 84.2319 41.928 83.5473 41.824C82.8713 41.7287 82.2559 41.5857 81.7013 41.395V39.679C83.0013 40.095 84.2363 40.303 85.4063 40.303C86.3596 40.303 87.1353 40.1643 87.7333 39.887C88.3313 39.6183 88.7776 39.1763 89.0723 38.561C89.3756 37.9457 89.5273 37.1267 89.5273 36.104V34.596H89.4103C89.0116 35.0727 88.5089 35.4583 87.9023 35.753C87.2956 36.039 86.6153 36.182 85.8613 36.182C84.9079 36.182 84.0543 35.9523 83.3003 35.493C82.5549 35.0337 81.9569 34.2883 81.5063 33.257C81.0556 32.217 80.8303 30.8737 80.8303 29.227C80.8303 26.6963 81.4023 24.807 82.5463 23.559C83.6903 22.311 85.3759 21.687 87.6033 21.687C88.2706 21.687 88.9596 21.739 89.6703 21.843C90.3896 21.947 91.0179 22.09 91.5553 22.272V35.805C91.5553 37.9717 91.0569 39.5403 90.0603 40.511C89.0723 41.4903 87.5599 41.98 85.5233 41.98ZM86.4593 34.44C87.0659 34.44 87.6466 34.3013 88.2013 34.024C88.7559 33.7467 89.1979 33.348 89.5273 32.828V23.585C88.8513 23.4203 88.1623 23.338 87.4603 23.338C85.9523 23.338 84.8169 23.7887 84.0543 24.69C83.2916 25.5913 82.9103 27.043 82.9103 29.045C82.9103 30.423 83.0576 31.5107 83.3523 32.308C83.6556 33.0967 84.0673 33.6513 84.5873 33.972C85.1073 34.284 85.7313 34.44 86.4593 34.44ZM99.093 21.687C100.263 21.687 101.221 21.8473 101.966 22.168C102.72 22.48 103.283 23 103.656 23.728C104.037 24.456 104.228 25.4397 104.228 26.679V36H102.525L102.369 34.453H102.239C101.814 35.0337 101.277 35.4757 100.627 35.779C99.977 36.0737 99.2577 36.221 98.469 36.221C97.6457 36.221 96.9264 36.0693 96.311 35.766C95.6957 35.4627 95.2234 35.025 94.894 34.453C94.5647 33.881 94.4 33.1963 94.4 32.399C94.4 31.1423 94.7944 30.1717 95.583 29.487C96.3804 28.7937 97.6197 28.369 99.301 28.213L102.226 27.901V26.575C102.226 25.743 102.1 25.093 101.849 24.625C101.606 24.157 101.238 23.8277 100.744 23.637C100.259 23.4463 99.6174 23.351 98.82 23.351C98.2914 23.351 97.715 23.403 97.091 23.507C96.467 23.6023 95.8604 23.7497 95.271 23.949V22.272C95.817 22.09 96.4324 21.947 97.117 21.843C97.8104 21.739 98.469 21.687 99.093 21.687ZM98.989 34.648C99.5957 34.648 100.181 34.5093 100.744 34.232C101.307 33.9547 101.801 33.5083 102.226 32.893V29.292L99.431 29.578C98.4084 29.682 97.6587 29.9507 97.182 30.384C96.7054 30.8087 96.467 31.411 96.467 32.191C96.467 33.0057 96.6794 33.621 97.104 34.037C97.5374 34.4443 98.1657 34.648 98.989 34.648ZM107.723 21.895H109.426L109.582 23.78H109.725C110.158 23.1213 110.709 22.623 111.376 22.285C112.043 21.9383 112.763 21.765 113.534 21.765C113.872 21.765 114.184 21.7867 114.47 21.83V23.728C114.175 23.6847 113.829 23.663 113.43 23.663C112.719 23.663 112.022 23.845 111.337 24.209C110.661 24.5643 110.132 25.0713 109.751 25.73V36H107.723V21.895ZM128.198 16.448C127.21 16.448 126.478 16.6733 126.001 17.124C125.524 17.5747 125.286 18.3027 125.286 19.308V21.895H129.277V23.585H125.286V36H123.271V23.585H120.736V21.895H123.271V19.373C123.271 17.865 123.67 16.7167 124.467 15.928C125.273 15.1307 126.452 14.732 128.003 14.732C128.653 14.732 129.247 14.7797 129.784 14.875V16.591C129.212 16.4957 128.683 16.448 128.198 16.448ZM140.489 29.63H132.104C132.13 30.8607 132.304 31.8357 132.624 32.555C132.954 33.2743 133.435 33.7943 134.067 34.115C134.709 34.427 135.541 34.583 136.563 34.583C137.508 34.583 138.591 34.4053 139.813 34.05V35.727C138.626 36.0737 137.465 36.247 136.329 36.247C134.917 36.247 133.747 36.0043 132.819 35.519C131.901 35.025 131.207 34.2407 130.739 33.166C130.271 32.0913 130.037 30.683 130.037 28.941C130.037 26.4797 130.51 24.6553 131.454 23.468C132.399 22.2807 133.716 21.687 135.406 21.687C137.053 21.687 138.31 22.2763 139.176 23.455C140.052 24.6337 140.489 26.4797 140.489 28.993V29.63ZM135.393 23.169C134.371 23.169 133.573 23.5547 133.001 24.326C132.438 25.0973 132.139 26.3973 132.104 28.226H138.526C138.509 26.9693 138.37 25.9683 138.11 25.223C137.859 24.4777 137.508 23.949 137.057 23.637C136.607 23.325 136.052 23.169 135.393 23.169ZM143.245 21.895H144.948L145.104 23.78H145.247C145.68 23.1213 146.23 22.623 146.898 22.285C147.565 21.9383 148.284 21.765 149.056 21.765C149.394 21.765 149.706 21.7867 149.992 21.83V23.728C149.697 23.6847 149.35 23.663 148.952 23.663C148.241 23.663 147.543 23.845 146.859 24.209C146.183 24.5643 145.654 25.0713 145.273 25.73V36H143.245V21.895ZM151.953 21.895H153.656L153.812 23.78H153.955C154.389 23.1213 154.939 22.623 155.606 22.285C156.274 21.9383 156.993 21.765 157.764 21.765C158.102 21.765 158.414 21.7867 158.7 21.83V23.728C158.406 23.6847 158.059 23.663 157.66 23.663C156.95 23.663 156.252 23.845 155.567 24.209C154.891 24.5643 154.363 25.0713 153.981 25.73V36H151.953V21.895ZM164.144 21.687C165.314 21.687 166.271 21.8473 167.017 22.168C167.771 22.48 168.334 23 168.707 23.728C169.088 24.456 169.279 25.4397 169.279 26.679V36H167.576L167.42 34.453H167.29C166.865 35.0337 166.328 35.4757 165.678 35.779C165.028 36.0737 164.308 36.221 163.52 36.221C162.696 36.221 161.977 36.0693 161.362 35.766C160.746 35.4627 160.274 35.025 159.945 34.453C159.615 33.881 159.451 33.1963 159.451 32.399C159.451 31.1423 159.845 30.1717 160.634 29.487C161.431 28.7937 162.67 28.369 164.352 28.213L167.277 27.901V26.575C167.277 25.743 167.151 25.093 166.9 24.625C166.657 24.157 166.289 23.8277 165.795 23.637C165.309 23.4463 164.668 23.351 163.871 23.351C163.342 23.351 162.766 23.403 162.142 23.507C161.518 23.6023 160.911 23.7497 160.322 23.949V22.272C160.868 22.09 161.483 21.947 162.168 21.843C162.861 21.739 163.52 21.687 164.144 21.687ZM164.04 34.648C164.646 34.648 165.231 34.5093 165.795 34.232C166.358 33.9547 166.852 33.5083 167.277 32.893V29.292L164.482 29.578C163.459 29.682 162.709 29.9507 162.233 30.384C161.756 30.8087 161.518 31.411 161.518 32.191C161.518 33.0057 161.73 33.621 162.155 34.037C162.588 34.4443 163.216 34.648 164.04 34.648ZM186.099 21.687C187.321 21.687 188.291 22.064 189.011 22.818C189.73 23.5633 190.09 24.7767 190.09 26.458V36H188.075V26.536C188.075 24.508 187.251 23.494 185.605 23.494C185.033 23.494 184.456 23.6413 183.876 23.936C183.295 24.2307 182.81 24.6987 182.42 25.34C182.454 25.6433 182.472 25.9987 182.472 26.406V36H180.47V26.536C180.47 25.444 180.257 24.664 179.833 24.196C179.417 23.728 178.827 23.494 178.065 23.494C177.475 23.494 176.877 23.6543 176.271 23.975C175.673 24.2957 175.183 24.7897 174.802 25.457V36H172.774V21.895H174.477L174.633 23.481H174.763C175.265 22.883 175.846 22.4367 176.505 22.142C177.163 21.8387 177.87 21.687 178.624 21.687C180.27 21.687 181.393 22.3543 181.991 23.689C182.563 22.987 183.204 22.48 183.915 22.168C184.625 21.8473 185.353 21.687 186.099 21.687ZM203.306 29.63H194.921C194.947 30.8607 195.12 31.8357 195.441 32.555C195.77 33.2743 196.251 33.7943 196.884 34.115C197.525 34.427 198.357 34.583 199.38 34.583C200.324 34.583 201.408 34.4053 202.63 34.05V35.727C201.442 36.0737 200.281 36.247 199.146 36.247C197.733 36.247 196.563 36.0043 195.636 35.519C194.717 35.025 194.024 34.2407 193.556 33.166C193.088 32.0913 192.854 30.683 192.854 28.941C192.854 26.4797 193.326 24.6553 194.271 23.468C195.215 22.2807 196.533 21.687 198.223 21.687C199.869 21.687 201.126 22.2763 201.993 23.455C202.868 24.6337 203.306 26.4797 203.306 28.993V29.63ZM198.21 23.169C197.187 23.169 196.39 23.5547 195.818 24.326C195.254 25.0973 194.955 26.3973 194.921 28.226H201.343C201.325 26.9693 201.187 25.9683 200.927 25.223C200.675 24.4777 200.324 23.949 199.874 23.637C199.423 23.325 198.868 23.169 198.21 23.169ZM206.061 21.895H207.764L207.92 23.468H208.05C208.561 22.896 209.168 22.4583 209.87 22.155C210.572 21.843 211.326 21.687 212.132 21.687C213.432 21.687 214.45 22.0597 215.187 22.805C215.932 23.5417 216.305 24.7463 216.305 26.419V36H214.277V26.523C214.277 25.431 214.047 24.6553 213.588 24.196C213.137 23.728 212.487 23.494 211.638 23.494C210.988 23.494 210.338 23.65 209.688 23.962C209.038 24.2653 208.505 24.7463 208.089 25.405V36H206.061V21.895ZM225.283 34.479C225.743 34.479 226.263 34.414 226.843 34.284V36.013C226.176 36.169 225.513 36.247 224.854 36.247C223.476 36.247 222.423 35.8873 221.695 35.168C220.976 34.4487 220.616 33.322 220.616 31.788V23.585H218.081V21.895H220.616L220.941 16.76H222.644V21.895H226.635V23.585H222.644V31.476C222.644 32.5767 222.852 33.3523 223.268 33.803C223.693 34.2537 224.365 34.479 225.283 34.479ZM232.749 21.687C233.919 21.687 234.877 21.8473 235.622 22.168C236.376 22.48 236.94 23 237.312 23.728C237.694 24.456 237.884 25.4397 237.884 26.679V36H236.181L236.025 34.453H235.895C235.471 35.0337 234.933 35.4757 234.283 35.779C233.633 36.0737 232.914 36.221 232.125 36.221C231.302 36.221 230.583 36.0693 229.967 35.766C229.352 35.4627 228.88 35.025 228.55 34.453C228.221 33.881 228.056 33.1963 228.056 32.399C228.056 31.1423 228.451 30.1717 229.239 29.487C230.037 28.7937 231.276 28.369 232.957 28.213L235.882 27.901V26.575C235.882 25.743 235.757 25.093 235.505 24.625C235.263 24.157 234.894 23.8277 234.4 23.637C233.915 23.4463 233.274 23.351 232.476 23.351C231.948 23.351 231.371 23.403 230.747 23.507C230.123 23.6023 229.517 23.7497 228.927 23.949V22.272C229.473 22.09 230.089 21.947 230.773 21.843C231.467 21.739 232.125 21.687 232.749 21.687ZM232.645 34.648C233.252 34.648 233.837 34.5093 234.4 34.232C234.964 33.9547 235.458 33.5083 235.882 32.893V29.292L233.087 29.578C232.065 29.682 231.315 29.9507 230.838 30.384C230.362 30.8087 230.123 31.411 230.123 32.191C230.123 33.0057 230.336 33.621 230.76 34.037C231.194 34.4443 231.822 34.648 232.645 34.648Z" fill="white"/>
</svg>
