<svg width="300" height="50" viewBox="0 0 300 50" fill="none" xmlns="http://www.w3.org/2000/svg">
<rect width="300" height="50" rx="15" fill="#9600DD"/>
<path d="M82.041 16.994C83.601 16.708 85.122 16.565 86.604 16.565C89.0827 16.565 90.9373 17.1023 92.168 18.177C93.4073 19.243 94.027 20.894 94.027 23.13C94.027 27.498 91.4617 29.682 86.331 29.682C85.6463 29.682 84.901 29.6473 84.095 29.578V36H82.041V16.994ZM86.396 27.992C88.32 27.992 89.7327 27.602 90.634 26.822C91.5353 26.042 91.986 24.8243 91.986 23.169C91.986 21.453 91.5613 20.205 90.712 19.425C89.8627 18.6363 88.541 18.242 86.747 18.242C85.811 18.242 84.927 18.307 84.095 18.437V27.862C84.719 27.9487 85.486 27.992 86.396 27.992ZM101.689 36.247C99.9037 36.247 98.5171 35.6577 97.5291 34.479C96.5411 33.2917 96.0471 31.4543 96.0471 28.967C96.0471 26.4623 96.5367 24.625 97.5161 23.455C98.4954 22.2763 99.8864 21.687 101.689 21.687C103.483 21.687 104.87 22.2763 105.849 23.455C106.828 24.6337 107.318 26.4667 107.318 28.954C107.318 31.4413 106.824 33.2787 105.836 34.466C104.857 35.6533 103.474 36.247 101.689 36.247ZM101.689 34.596C102.452 34.596 103.093 34.4227 103.613 34.076C104.142 33.7207 104.545 33.1313 104.822 32.308C105.108 31.4847 105.251 30.3797 105.251 28.993C105.251 27.5803 105.108 26.458 104.822 25.626C104.545 24.794 104.146 24.2047 103.626 23.858C103.106 23.5113 102.46 23.338 101.689 23.338C100.918 23.338 100.272 23.5113 99.7521 23.858C99.2321 24.2047 98.8291 24.7897 98.5431 25.613C98.2657 26.4277 98.1271 27.5283 98.1271 28.915C98.1271 30.3277 98.2657 31.4543 98.5431 32.295C98.8291 33.127 99.2321 33.7207 99.7521 34.076C100.272 34.4227 100.918 34.596 101.689 34.596ZM113.261 36.247C111.961 36.247 110.765 36.065 109.673 35.701V34.05C110.904 34.4313 112.095 34.622 113.248 34.622C114.323 34.622 115.133 34.4183 115.679 34.011C116.225 33.595 116.498 33.0013 116.498 32.23C116.498 31.58 116.333 31.0817 116.004 30.735C115.683 30.3797 115.168 30.111 114.457 29.929L112.806 29.552C111.593 29.2573 110.717 28.8023 110.18 28.187C109.651 27.563 109.387 26.744 109.387 25.73C109.387 24.9327 109.586 24.2307 109.985 23.624C110.384 23.0173 110.977 22.545 111.766 22.207C112.563 21.8603 113.534 21.687 114.678 21.687C115.753 21.687 116.771 21.804 117.733 22.038V23.689C116.78 23.4377 115.779 23.312 114.73 23.312C113.569 23.312 112.711 23.5287 112.156 23.962C111.61 24.3953 111.337 24.963 111.337 25.665C111.337 26.263 111.493 26.7397 111.805 27.095C112.117 27.4503 112.62 27.7147 113.313 27.888L114.964 28.252C116.203 28.5553 117.092 29.019 117.629 29.643C118.166 30.2583 118.435 31.0903 118.435 32.139C118.435 32.9883 118.231 33.7207 117.824 34.336C117.425 34.9513 116.836 35.4237 116.056 35.753C115.285 36.0823 114.353 36.247 113.261 36.247ZM121.036 36V21.895H123.064V36H121.036ZM122.05 18.814C121.59 18.814 121.235 18.7013 120.984 18.476C120.741 18.2507 120.62 17.9343 120.62 17.527C120.62 17.1197 120.741 16.8033 120.984 16.578C121.235 16.344 121.59 16.227 122.05 16.227C122.5 16.227 122.847 16.344 123.09 16.578C123.341 16.8033 123.467 17.1197 123.467 17.527C123.467 17.9343 123.341 18.2507 123.09 18.476C122.847 18.7013 122.5 18.814 122.05 18.814ZM132.626 23.416C131.56 23.416 130.698 23.5893 130.039 23.936C129.381 24.2827 128.887 24.8547 128.557 25.652C128.237 26.4493 128.076 27.5327 128.076 28.902C128.076 30.2887 128.228 31.3937 128.531 32.217C128.835 33.0403 129.281 33.6297 129.87 33.985C130.46 34.3403 131.218 34.518 132.145 34.518C132.986 34.518 133.944 34.3403 135.018 33.985V35.701C133.978 36.065 132.921 36.247 131.846 36.247H131.768V37.378C132.384 37.456 132.852 37.6683 133.172 38.015C133.502 38.3617 133.666 38.8123 133.666 39.367C133.666 39.9997 133.441 40.4937 132.99 40.849C132.548 41.213 131.911 41.395 131.079 41.395C130.707 41.395 130.334 41.356 129.961 41.278C129.597 41.2 129.277 41.0917 128.999 40.953V39.926C129.632 40.238 130.317 40.394 131.053 40.394C131.972 40.394 132.431 40.0343 132.431 39.315C132.431 38.561 131.963 38.184 131.027 38.184H130.585V36.156C129.051 35.9307 127.894 35.2373 127.114 34.076C126.343 32.9147 125.957 31.2073 125.957 28.954C125.957 26.406 126.495 24.56 127.569 23.416C128.644 22.2633 130.247 21.687 132.379 21.687C133.341 21.687 134.221 21.791 135.018 21.999V23.728C134.195 23.52 133.398 23.416 132.626 23.416ZM141.122 21.687C142.292 21.687 143.25 21.8473 143.995 22.168C144.749 22.48 145.313 23 145.685 23.728C146.067 24.456 146.257 25.4397 146.257 26.679V36H144.554L144.398 34.453H144.268C143.844 35.0337 143.306 35.4757 142.656 35.779C142.006 36.0737 141.287 36.221 140.498 36.221C139.675 36.221 138.956 36.0693 138.34 35.766C137.725 35.4627 137.253 35.025 136.923 34.453C136.594 33.881 136.429 33.1963 136.429 32.399C136.429 31.1423 136.824 30.1717 137.612 29.487C138.41 28.7937 139.649 28.369 141.33 28.213L144.255 27.901V26.575C144.255 25.743 144.13 25.093 143.878 24.625C143.636 24.157 143.267 23.8277 142.773 23.637C142.288 23.4463 141.647 23.351 140.849 23.351C140.321 23.351 139.744 23.403 139.12 23.507C138.496 23.6023 137.89 23.7497 137.3 23.949V22.272C137.846 22.09 138.462 21.947 139.146 21.843C139.84 21.739 140.498 21.687 141.122 21.687ZM141.018 34.648C141.625 34.648 142.21 34.5093 142.773 34.232C143.337 33.9547 143.831 33.5083 144.255 32.893V29.292L141.46 29.578C140.438 29.682 139.688 29.9507 139.211 30.384C138.735 30.8087 138.496 31.411 138.496 32.191C138.496 33.0057 138.709 33.621 139.133 34.037C139.567 34.4443 140.195 34.648 141.018 34.648ZM143.345 18.502C143.025 18.502 142.721 18.4543 142.435 18.359C142.158 18.255 141.816 18.1077 141.408 17.917C141.027 17.7437 140.724 17.618 140.498 17.54C140.273 17.462 140.048 17.423 139.822 17.423C139.424 17.423 139.064 17.5053 138.743 17.67C138.423 17.826 138.106 18.073 137.794 18.411V16.942C138.306 16.3613 138.99 16.071 139.848 16.071C140.16 16.071 140.455 16.1187 140.732 16.214C141.01 16.3093 141.361 16.4523 141.785 16.643C142.123 16.8077 142.414 16.9333 142.656 17.02C142.899 17.098 143.137 17.137 143.371 17.137C143.77 17.137 144.13 17.059 144.45 16.903C144.771 16.7383 145.087 16.487 145.399 16.149V17.618C144.879 18.2073 144.195 18.502 143.345 18.502ZM154.679 36.247C152.894 36.247 151.507 35.6577 150.519 34.479C149.531 33.2917 149.037 31.4543 149.037 28.967C149.037 26.4623 149.527 24.625 150.506 23.455C151.486 22.2763 152.877 21.687 154.679 21.687C156.473 21.687 157.86 22.2763 158.839 23.455C159.819 24.6337 160.308 26.4667 160.308 28.954C160.308 31.4413 159.814 33.2787 158.826 34.466C157.847 35.6533 156.465 36.247 154.679 36.247ZM154.679 34.596C155.442 34.596 156.083 34.4227 156.603 34.076C157.132 33.7207 157.535 33.1313 157.812 32.308C158.098 31.4847 158.241 30.3797 158.241 28.993C158.241 27.5803 158.098 26.458 157.812 25.626C157.535 24.794 157.136 24.2047 156.616 23.858C156.096 23.5113 155.451 23.338 154.679 23.338C153.908 23.338 153.262 23.5113 152.742 23.858C152.222 24.2047 151.819 24.7897 151.533 25.613C151.256 26.4277 151.117 27.5283 151.117 28.915C151.117 30.3277 151.256 31.4543 151.533 32.295C151.819 33.127 152.222 33.7207 152.742 34.076C153.262 34.4227 153.908 34.596 154.679 34.596ZM173.038 21.687C174.208 21.687 175.166 21.8473 175.911 22.168C176.665 22.48 177.229 23 177.601 23.728C177.983 24.456 178.173 25.4397 178.173 26.679V36H176.47L176.314 34.453H176.184C175.76 35.0337 175.222 35.4757 174.572 35.779C173.922 36.0737 173.203 36.221 172.414 36.221C171.591 36.221 170.872 36.0693 170.256 35.766C169.641 35.4627 169.169 35.025 168.839 34.453C168.51 33.881 168.345 33.1963 168.345 32.399C168.345 31.1423 168.74 30.1717 169.528 29.487C170.326 28.7937 171.565 28.369 173.246 28.213L176.171 27.901V26.575C176.171 25.743 176.046 25.093 175.794 24.625C175.552 24.157 175.183 23.8277 174.689 23.637C174.204 23.4463 173.563 23.351 172.765 23.351C172.237 23.351 171.66 23.403 171.036 23.507C170.412 23.6023 169.806 23.7497 169.216 23.949V22.272C169.762 22.09 170.378 21.947 171.062 21.843C171.756 21.739 172.414 21.687 173.038 21.687ZM172.934 34.648C173.541 34.648 174.126 34.5093 174.689 34.232C175.253 33.9547 175.747 33.5083 176.171 32.893V29.292L173.376 29.578C172.354 29.682 171.604 29.9507 171.127 30.384C170.651 30.8087 170.412 31.411 170.412 32.191C170.412 33.0057 170.625 33.621 171.049 34.037C171.483 34.4443 172.111 34.648 172.934 34.648ZM187.154 34.479C187.614 34.479 188.134 34.414 188.714 34.284V36.013C188.047 36.169 187.384 36.247 186.725 36.247C185.347 36.247 184.294 35.8873 183.566 35.168C182.847 34.4487 182.487 33.322 182.487 31.788V23.585H179.952V21.895H182.487L182.812 16.76H184.515V21.895H188.506V23.585H184.515V31.476C184.515 32.5767 184.723 33.3523 185.139 33.803C185.564 34.2537 186.236 34.479 187.154 34.479ZM194.75 36.234C193.459 36.234 192.441 35.8613 191.695 35.116C190.95 34.3707 190.577 33.1573 190.577 31.476V21.895H192.605V31.398C192.605 32.4813 192.831 33.257 193.281 33.725C193.732 34.193 194.369 34.427 195.192 34.427C195.816 34.427 196.449 34.271 197.09 33.959C197.732 33.647 198.256 33.1703 198.663 32.529V21.895H200.691V36H198.988L198.832 34.479H198.702C198.182 35.0597 197.58 35.4973 196.895 35.792C196.219 36.0867 195.504 36.234 194.75 36.234ZM208.23 21.687C209.4 21.687 210.357 21.8473 211.103 22.168C211.857 22.48 212.42 23 212.793 23.728C213.174 24.456 213.365 25.4397 213.365 26.679V36H211.662L211.506 34.453H211.376C210.951 35.0337 210.414 35.4757 209.764 35.779C209.114 36.0737 208.394 36.221 207.606 36.221C206.782 36.221 206.063 36.0693 205.448 35.766C204.832 35.4627 204.36 35.025 204.031 34.453C203.701 33.881 203.537 33.1963 203.537 32.399C203.537 31.1423 203.931 30.1717 204.72 29.487C205.517 28.7937 206.756 28.369 208.438 28.213L211.363 27.901V26.575C211.363 25.743 211.237 25.093 210.986 24.625C210.743 24.157 210.375 23.8277 209.881 23.637C209.395 23.4463 208.754 23.351 207.957 23.351C207.428 23.351 206.852 23.403 206.228 23.507C205.604 23.6023 204.997 23.7497 204.408 23.949V22.272C204.954 22.09 205.569 21.947 206.254 21.843C206.947 21.739 207.606 21.687 208.23 21.687ZM208.126 34.648C208.732 34.648 209.317 34.5093 209.881 34.232C210.444 33.9547 210.938 33.5083 211.363 32.893V29.292L208.568 29.578C207.545 29.682 206.795 29.9507 206.319 30.384C205.842 30.8087 205.604 31.411 205.604 32.191C205.604 33.0057 205.816 33.621 206.241 34.037C206.674 34.4443 207.302 34.648 208.126 34.648ZM216.86 36V14.992H218.888V36H216.86Z" fill="white"/>
</svg>
