<svg width="300" height="50" viewBox="0 0 300 50" fill="none" xmlns="http://www.w3.org/2000/svg">
<rect width="300" height="50" rx="15" fill="#9600DD"/>
<path d="M40.247 36L34.488 27.992C34.1327 28.018 33.7643 28.031 33.383 28.031C32.6637 28.031 31.8923 28.0007 31.069 27.94V36H29.041V17.02C30.6617 16.7167 32.252 16.565 33.812 16.565C36.23 16.565 38.0327 17.033 39.22 17.969C40.4073 18.905 41.001 20.3263 41.001 22.233C41.0097 23.689 40.6327 24.8763 39.87 25.795C39.116 26.705 37.998 27.342 36.516 27.706L42.535 36H40.247ZM33.37 26.38C35.3373 26.38 36.7717 26.0507 37.673 25.392C38.5743 24.7247 39.025 23.6803 39.025 22.259C39.025 20.8637 38.622 19.841 37.816 19.191C37.01 18.541 35.7143 18.216 33.929 18.216C32.9323 18.216 31.979 18.294 31.069 18.45V26.276C31.9963 26.3453 32.7633 26.38 33.37 26.38ZM53.9053 29.63H45.5203C45.5463 30.8607 45.7197 31.8357 46.0403 32.555C46.3697 33.2743 46.8507 33.7943 47.4833 34.115C48.1247 34.427 48.9567 34.583 49.9793 34.583C50.924 34.583 52.0073 34.4053 53.2293 34.05V35.727C52.042 36.0737 50.8807 36.247 49.7453 36.247C48.3327 36.247 47.1627 36.0043 46.2353 35.519C45.3167 35.025 44.6233 34.2407 44.1553 33.166C43.6873 32.0913 43.4533 30.683 43.4533 28.941C43.4533 26.4797 43.9257 24.6553 44.8703 23.468C45.815 22.2807 47.1323 21.687 48.8223 21.687C50.469 21.687 51.7257 22.2763 52.5923 23.455C53.4677 24.6337 53.9053 26.4797 53.9053 28.993V29.63ZM48.8093 23.169C47.7867 23.169 46.9893 23.5547 46.4173 24.326C45.854 25.0973 45.555 26.3973 45.5203 28.226H51.9423C51.925 26.9693 51.7863 25.9683 51.5263 25.223C51.275 24.4777 50.924 23.949 50.4733 23.637C50.0227 23.325 49.468 23.169 48.8093 23.169ZM60.6385 41.98C60.0058 41.98 59.3472 41.928 58.6625 41.824C57.9865 41.7287 57.3712 41.5857 56.8165 41.395V39.679C58.1165 40.095 59.3515 40.303 60.5215 40.303C61.4748 40.303 62.2505 40.1643 62.8485 39.887C63.4465 39.6183 63.8928 39.1763 64.1875 38.561C64.4908 37.9457 64.6425 37.1267 64.6425 36.104V34.596H64.5255C64.1268 35.0727 63.6242 35.4583 63.0175 35.753C62.4108 36.039 61.7305 36.182 60.9765 36.182C60.0232 36.182 59.1695 35.9523 58.4155 35.493C57.6702 35.0337 57.0722 34.2883 56.6215 33.257C56.1708 32.217 55.9455 30.8737 55.9455 29.227C55.9455 26.6963 56.5175 24.807 57.6615 23.559C58.8055 22.311 60.4912 21.687 62.7185 21.687C63.3858 21.687 64.0748 21.739 64.7855 21.843C65.5048 21.947 66.1332 22.09 66.6705 22.272V35.805C66.6705 37.9717 66.1722 39.5403 65.1755 40.511C64.1875 41.4903 62.6752 41.98 60.6385 41.98ZM61.5745 34.44C62.1812 34.44 62.7618 34.3013 63.3165 34.024C63.8712 33.7467 64.3132 33.348 64.6425 32.828V23.585C63.9665 23.4203 63.2775 23.338 62.5755 23.338C61.0675 23.338 59.9322 23.7887 59.1695 24.69C58.4068 25.5913 58.0255 27.043 58.0255 29.045C58.0255 30.423 58.1728 31.5107 58.4675 32.308C58.7708 33.0967 59.1825 33.6513 59.7025 33.972C60.2225 34.284 60.8465 34.44 61.5745 34.44ZM70.2953 36V21.895H72.3233V36H70.2953ZM71.3093 18.814C70.8499 18.814 70.4946 18.7013 70.2433 18.476C70.0006 18.2507 69.8793 17.9343 69.8793 17.527C69.8793 17.1197 70.0006 16.8033 70.2433 16.578C70.4946 16.344 70.8499 16.227 71.3093 16.227C71.7599 16.227 72.1066 16.344 72.3493 16.578C72.6006 16.8033 72.7263 17.1197 72.7263 17.527C72.7263 17.9343 72.6006 18.2507 72.3493 18.476C72.1066 18.7013 71.7599 18.814 71.3093 18.814ZM78.974 36.247C77.674 36.247 76.478 36.065 75.386 35.701V34.05C76.6167 34.4313 77.8083 34.622 78.961 34.622C80.0357 34.622 80.846 34.4183 81.392 34.011C81.938 33.595 82.211 33.0013 82.211 32.23C82.211 31.58 82.0463 31.0817 81.717 30.735C81.3963 30.3797 80.8807 30.111 80.17 29.929L78.519 29.552C77.3057 29.2573 76.4303 28.8023 75.893 28.187C75.3643 27.563 75.1 26.744 75.1 25.73C75.1 24.9327 75.2993 24.2307 75.698 23.624C76.0967 23.0173 76.6903 22.545 77.479 22.207C78.2763 21.8603 79.247 21.687 80.391 21.687C81.4657 21.687 82.484 21.804 83.446 22.038V23.689C82.4927 23.4377 81.4917 23.312 80.443 23.312C79.2817 23.312 78.4237 23.5287 77.869 23.962C77.323 24.3953 77.05 24.963 77.05 25.665C77.05 26.263 77.206 26.7397 77.518 27.095C77.83 27.4503 78.3327 27.7147 79.026 27.888L80.677 28.252C81.9163 28.5553 82.8047 29.019 83.342 29.643C83.8793 30.2583 84.148 31.0903 84.148 32.139C84.148 32.9883 83.9443 33.7207 83.537 34.336C83.1383 34.9513 82.549 35.4237 81.769 35.753C80.9977 36.0823 80.066 36.247 78.974 36.247ZM92.0821 34.479C92.5414 34.479 93.0614 34.414 93.6421 34.284V36.013C92.9747 36.169 92.3117 36.247 91.6531 36.247C90.2751 36.247 89.2221 35.8873 88.4941 35.168C87.7747 34.4487 87.4151 33.322 87.4151 31.788V23.585H84.8801V21.895H87.4151L87.7401 16.76H89.4431V21.895H93.4341V23.585H89.4431V31.476C89.4431 32.5767 89.6511 33.3523 90.0671 33.803C90.4917 34.2537 91.1634 34.479 92.0821 34.479ZM95.6351 21.895H97.3381L97.4941 23.78H97.6371C98.0705 23.1213 98.6208 22.623 99.2881 22.285C99.9555 21.9383 100.675 21.765 101.446 21.765C101.784 21.765 102.096 21.7867 102.382 21.83V23.728C102.087 23.6847 101.741 23.663 101.342 23.663C100.631 23.663 99.9338 23.845 99.2491 24.209C98.5731 24.5643 98.0445 25.0713 97.6631 25.73V36H95.6351V21.895ZM108.966 36.247C107.181 36.247 105.794 35.6577 104.806 34.479C103.818 33.2917 103.324 31.4543 103.324 28.967C103.324 26.4623 103.814 24.625 104.793 23.455C105.773 22.2763 107.164 21.687 108.966 21.687C110.76 21.687 112.147 22.2763 113.126 23.455C114.106 24.6337 114.595 26.4667 114.595 28.954C114.595 31.4413 114.101 33.2787 113.113 34.466C112.134 35.6533 110.752 36.247 108.966 36.247ZM108.966 34.596C109.729 34.596 110.37 34.4227 110.89 34.076C111.419 33.7207 111.822 33.1313 112.099 32.308C112.385 31.4847 112.528 30.3797 112.528 28.993C112.528 27.5803 112.385 26.458 112.099 25.626C111.822 24.794 111.423 24.2047 110.903 23.858C110.383 23.5113 109.738 23.338 108.966 23.338C108.195 23.338 107.549 23.5113 107.029 23.858C106.509 24.2047 106.106 24.7897 105.82 25.613C105.543 26.4277 105.404 27.5283 105.404 28.915C105.404 30.3277 105.543 31.4543 105.82 32.295C106.106 33.127 106.509 33.7207 107.029 34.076C107.549 34.4227 108.195 34.596 108.966 34.596ZM120.538 36.247C119.238 36.247 118.042 36.065 116.95 35.701V34.05C118.181 34.4313 119.373 34.622 120.525 34.622C121.6 34.622 122.41 34.4183 122.956 34.011C123.502 33.595 123.775 33.0013 123.775 32.23C123.775 31.58 123.611 31.0817 123.281 30.735C122.961 30.3797 122.445 30.111 121.734 29.929L120.083 29.552C118.87 29.2573 117.995 28.8023 117.457 28.187C116.929 27.563 116.664 26.744 116.664 25.73C116.664 24.9327 116.864 24.2307 117.262 23.624C117.661 23.0173 118.255 22.545 119.043 22.207C119.841 21.8603 120.811 21.687 121.955 21.687C123.03 21.687 124.048 21.804 125.01 22.038V23.689C124.057 23.4377 123.056 23.312 122.007 23.312C120.846 23.312 119.988 23.5287 119.433 23.962C118.887 24.3953 118.614 24.963 118.614 25.665C118.614 26.263 118.77 26.7397 119.082 27.095C119.394 27.4503 119.897 27.7147 120.59 27.888L122.241 28.252C123.481 28.5553 124.369 29.019 124.906 29.643C125.444 30.2583 125.712 31.0903 125.712 32.139C125.712 32.9883 125.509 33.7207 125.101 34.336C124.703 34.9513 124.113 35.4237 123.333 35.753C122.562 36.0823 121.63 36.247 120.538 36.247ZM138.701 36.247C137.15 36.247 135.897 35.6923 134.944 34.583C133.991 33.4737 133.514 31.6927 133.514 29.24C133.514 26.7007 134.082 24.807 135.217 23.559C136.361 22.3023 138.038 21.674 140.248 21.674C140.829 21.674 141.483 21.7217 142.211 21.817V14.992H144.239V36H142.51L142.367 34.544H142.237C141.847 35.0553 141.349 35.467 140.742 35.779C140.135 36.091 139.455 36.247 138.701 36.247ZM139.143 34.492C139.75 34.492 140.33 34.349 140.885 34.063C141.44 33.7683 141.882 33.3437 142.211 32.789V23.533C141.925 23.481 141.6 23.4377 141.236 23.403C140.872 23.3597 140.53 23.338 140.209 23.338C138.658 23.338 137.501 23.7887 136.738 24.69C135.975 25.5913 135.594 27.0473 135.594 29.058C135.594 30.4447 135.741 31.5367 136.036 32.334C136.339 33.1313 136.747 33.6903 137.258 34.011C137.778 34.3317 138.406 34.492 139.143 34.492ZM157.601 29.63H149.216C149.242 30.8607 149.415 31.8357 149.736 32.555C150.065 33.2743 150.546 33.7943 151.179 34.115C151.82 34.427 152.652 34.583 153.675 34.583C154.619 34.583 155.703 34.4053 156.925 34.05V35.727C155.737 36.0737 154.576 36.247 153.441 36.247C152.028 36.247 150.858 36.0043 149.931 35.519C149.012 35.025 148.319 34.2407 147.851 33.166C147.383 32.0913 147.149 30.683 147.149 28.941C147.149 26.4797 147.621 24.6553 148.566 23.468C149.51 22.2807 150.828 21.687 152.518 21.687C154.164 21.687 155.421 22.2763 156.288 23.455C157.163 24.6337 157.601 26.4797 157.601 28.993V29.63ZM152.505 23.169C151.482 23.169 150.685 23.5547 150.113 24.326C149.549 25.0973 149.25 26.3973 149.216 28.226H155.638C155.62 26.9693 155.482 25.9683 155.222 25.223C154.97 24.4777 154.619 23.949 154.169 23.637C153.718 23.325 153.163 23.169 152.505 23.169ZM178.544 36L176.477 29.747H168.885L166.818 36H164.764L171.251 16.76H174.15L180.637 36H178.544ZM169.47 28.005H175.892L172.681 18.294L169.47 28.005ZM187.805 34.479C188.264 34.479 188.784 34.414 189.365 34.284V36.013C188.697 36.169 188.034 36.247 187.376 36.247C185.998 36.247 184.945 35.8873 184.217 35.168C183.497 34.4487 183.138 33.322 183.138 31.788V23.585H180.603V21.895H183.138L183.463 16.76H185.166V21.895H189.157V23.585H185.166V31.476C185.166 32.5767 185.374 33.3523 185.79 33.803C186.214 34.2537 186.886 34.479 187.805 34.479ZM191.409 36V21.895H193.437V36H191.409ZM192.423 18.814C191.963 18.814 191.608 18.7013 191.357 18.476C191.114 18.2507 190.993 17.9343 190.993 17.527C190.993 17.1197 191.114 16.8033 191.357 16.578C191.608 16.344 191.963 16.227 192.423 16.227C192.873 16.227 193.22 16.344 193.463 16.578C193.714 16.8033 193.84 17.1197 193.84 17.527C193.84 17.9343 193.714 18.2507 193.463 18.476C193.22 18.7013 192.873 18.814 192.423 18.814ZM205.859 21.895H207.926L202.96 36H200.334L195.368 21.895H197.526L201.686 34.141L205.859 21.895ZM209.868 36V21.895H211.896V36H209.868ZM210.882 18.814C210.422 18.814 210.067 18.7013 209.816 18.476C209.573 18.2507 209.452 17.9343 209.452 17.527C209.452 17.1197 209.573 16.8033 209.816 16.578C210.067 16.344 210.422 16.227 210.882 16.227C211.332 16.227 211.679 16.344 211.922 16.578C212.173 16.8033 212.299 17.1197 212.299 17.527C212.299 17.9343 212.173 18.2507 211.922 18.476C211.679 18.7013 211.332 18.814 210.882 18.814ZM219.976 36.247C218.425 36.247 217.173 35.6923 216.219 34.583C215.266 33.4737 214.789 31.6927 214.789 29.24C214.789 26.7007 215.357 24.807 216.492 23.559C217.636 22.3023 219.313 21.674 221.523 21.674C222.104 21.674 222.758 21.7217 223.486 21.817V14.992H225.514V36H223.785L223.642 34.544H223.512C223.122 35.0553 222.624 35.467 222.017 35.779C221.411 36.091 220.73 36.247 219.976 36.247ZM220.418 34.492C221.025 34.492 221.606 34.349 222.16 34.063C222.715 33.7683 223.157 33.3437 223.486 32.789V23.533C223.2 23.481 222.875 23.4377 222.511 23.403C222.147 23.3597 221.805 23.338 221.484 23.338C219.933 23.338 218.776 23.7887 218.013 24.69C217.251 25.5913 216.869 27.0473 216.869 29.058C216.869 30.4447 217.017 31.5367 217.311 32.334C217.615 33.1313 218.022 33.6903 218.533 34.011C219.053 34.3317 219.682 34.492 220.418 34.492ZM233.052 21.687C234.222 21.687 235.18 21.8473 235.925 22.168C236.679 22.48 237.242 23 237.615 23.728C237.996 24.456 238.187 25.4397 238.187 26.679V36H236.484L236.328 34.453H236.198C235.773 35.0337 235.236 35.4757 234.586 35.779C233.936 36.0737 233.217 36.221 232.428 36.221C231.605 36.221 230.885 36.0693 230.27 35.766C229.655 35.4627 229.182 35.025 228.853 34.453C228.524 33.881 228.359 33.1963 228.359 32.399C228.359 31.1423 228.753 30.1717 229.542 29.487C230.339 28.7937 231.579 28.369 233.26 28.213L236.185 27.901V26.575C236.185 25.743 236.059 25.093 235.808 24.625C235.565 24.157 235.197 23.8277 234.703 23.637C234.218 23.4463 233.576 23.351 232.779 23.351C232.25 23.351 231.674 23.403 231.05 23.507C230.426 23.6023 229.819 23.7497 229.23 23.949V22.272C229.776 22.09 230.391 21.947 231.076 21.843C231.769 21.739 232.428 21.687 233.052 21.687ZM232.948 34.648C233.555 34.648 234.14 34.5093 234.703 34.232C235.266 33.9547 235.76 33.5083 236.185 32.893V29.292L233.39 29.578C232.367 29.682 231.618 29.9507 231.141 30.384C230.664 30.8087 230.426 31.411 230.426 32.191C230.426 33.0057 230.638 33.621 231.063 34.037C231.496 34.4443 232.125 34.648 232.948 34.648ZM246.154 36.247C244.603 36.247 243.35 35.6923 242.397 34.583C241.444 33.4737 240.967 31.6927 240.967 29.24C240.967 26.7007 241.535 24.807 242.67 23.559C243.814 22.3023 245.491 21.674 247.701 21.674C248.282 21.674 248.936 21.7217 249.664 21.817V14.992H251.692V36H249.963L249.82 34.544H249.69C249.3 35.0553 248.802 35.467 248.195 35.779C247.588 36.091 246.908 36.247 246.154 36.247ZM246.596 34.492C247.203 34.492 247.783 34.349 248.338 34.063C248.893 33.7683 249.335 33.3437 249.664 32.789V23.533C249.378 23.481 249.053 23.4377 248.689 23.403C248.325 23.3597 247.983 23.338 247.662 23.338C246.111 23.338 244.954 23.7887 244.191 24.69C243.428 25.5913 243.047 27.0473 243.047 29.058C243.047 30.4447 243.194 31.5367 243.489 32.334C243.792 33.1313 244.2 33.6903 244.711 34.011C245.231 34.3317 245.859 34.492 246.596 34.492ZM265.054 29.63H256.669C256.695 30.8607 256.868 31.8357 257.189 32.555C257.518 33.2743 257.999 33.7943 258.632 34.115C259.273 34.427 260.105 34.583 261.128 34.583C262.072 34.583 263.156 34.4053 264.378 34.05V35.727C263.19 36.0737 262.029 36.247 260.894 36.247C259.481 36.247 258.311 36.0043 257.384 35.519C256.465 35.025 255.772 34.2407 255.304 33.166C254.836 32.0913 254.602 30.683 254.602 28.941C254.602 26.4797 255.074 24.6553 256.019 23.468C256.963 22.2807 258.281 21.687 259.971 21.687C261.617 21.687 262.874 22.2763 263.741 23.455C264.616 24.6337 265.054 26.4797 265.054 28.993V29.63ZM259.958 23.169C258.935 23.169 258.138 23.5547 257.566 24.326C257.002 25.0973 256.703 26.3973 256.669 28.226H263.091C263.073 26.9693 262.935 25.9683 262.675 25.223C262.423 24.4777 262.072 23.949 261.622 23.637C261.171 23.325 260.616 23.169 259.958 23.169ZM270.851 36.247C269.551 36.247 268.355 36.065 267.263 35.701V34.05C268.494 34.4313 269.685 34.622 270.838 34.622C271.913 34.622 272.723 34.4183 273.269 34.011C273.815 33.595 274.088 33.0013 274.088 32.23C274.088 31.58 273.923 31.0817 273.594 30.735C273.273 30.3797 272.758 30.111 272.047 29.929L270.396 29.552C269.183 29.2573 268.307 28.8023 267.77 28.187C267.241 27.563 266.977 26.744 266.977 25.73C266.977 24.9327 267.176 24.2307 267.575 23.624C267.974 23.0173 268.567 22.545 269.356 22.207C270.153 21.8603 271.124 21.687 272.268 21.687C273.343 21.687 274.361 21.804 275.323 22.038V23.689C274.37 23.4377 273.369 23.312 272.32 23.312C271.159 23.312 270.301 23.5287 269.746 23.962C269.2 24.3953 268.927 24.963 268.927 25.665C268.927 26.263 269.083 26.7397 269.395 27.095C269.707 27.4503 270.21 27.7147 270.903 27.888L272.554 28.252C273.793 28.5553 274.682 29.019 275.219 29.643C275.756 30.2583 276.025 31.0903 276.025 32.139C276.025 32.9883 275.821 33.7207 275.414 34.336C275.015 34.9513 274.426 35.4237 273.646 35.753C272.875 36.0823 271.943 36.247 270.851 36.247Z" fill="white"/>
</svg>
