<svg width="300" height="50" viewBox="0 0 300 50" fill="none" xmlns="http://www.w3.org/2000/svg">
<rect width="300" height="50" rx="15" fill="#9600DD"/>
<path d="M63.512 36.234C62.7927 36.234 62.0517 36.1733 61.289 36.052C60.5263 35.9307 59.8113 35.753 59.144 35.519V33.738C59.872 33.9807 60.613 34.167 61.367 34.297C62.121 34.4183 62.849 34.479 63.551 34.479C66.4543 34.479 67.906 33.3047 67.906 30.956C67.906 30.2973 67.789 29.747 67.555 29.305C67.3297 28.863 66.9613 28.486 66.45 28.174C65.9473 27.862 65.2583 27.5717 64.383 27.303L63.408 27.017C61.8827 26.5663 60.743 25.9207 59.989 25.08C59.235 24.2307 58.858 23.1343 58.858 21.791C58.858 20.1183 59.4127 18.8227 60.522 17.904C61.6313 16.9853 63.252 16.526 65.384 16.526C66.0513 16.526 66.7187 16.5737 67.386 16.669C68.062 16.7557 68.66 16.8813 69.18 17.046V18.827C68.0273 18.463 66.7793 18.281 65.436 18.281C62.4373 18.281 60.938 19.412 60.938 21.674C60.938 22.3067 61.0463 22.8397 61.263 23.273C61.4797 23.6977 61.8263 24.066 62.303 24.378C62.7797 24.6813 63.4297 24.9587 64.253 25.21L65.215 25.496C66.8443 25.9727 68.049 26.64 68.829 27.498C69.609 28.3473 69.999 29.4567 69.999 30.826C69.999 31.97 69.7433 32.945 69.232 33.751C68.7293 34.557 67.9927 35.1723 67.022 35.597C66.0513 36.0217 64.8813 36.234 63.512 36.234ZM82.671 29.63H74.286C74.312 30.8607 74.4853 31.8357 74.806 32.555C75.1353 33.2743 75.6163 33.7943 76.249 34.115C76.8903 34.427 77.7223 34.583 78.745 34.583C79.6896 34.583 80.773 34.4053 81.995 34.05V35.727C80.8076 36.0737 79.6463 36.247 78.511 36.247C77.0983 36.247 75.9283 36.0043 75.001 35.519C74.0823 35.025 73.389 34.2407 72.921 33.166C72.453 32.0913 72.219 30.683 72.219 28.941C72.219 26.4797 72.6913 24.6553 73.636 23.468C74.5806 22.2807 75.898 21.687 77.588 21.687C79.2346 21.687 80.4913 22.2763 81.358 23.455C82.2333 24.6337 82.671 26.4797 82.671 28.993V29.63ZM77.575 23.169C76.5523 23.169 75.755 23.5547 75.183 24.326C74.6196 25.0973 74.3206 26.3973 74.286 28.226H80.708C80.6906 26.9693 80.552 25.9683 80.292 25.223C80.0406 24.4777 79.6896 23.949 79.239 23.637C78.7883 23.325 78.2336 23.169 77.575 23.169ZM85.4261 36V14.992H87.4541V36H85.4261ZM100.8 29.63H92.4149C92.4409 30.8607 92.6142 31.8357 92.9349 32.555C93.2642 33.2743 93.7452 33.7943 94.3779 34.115C95.0192 34.427 95.8512 34.583 96.8739 34.583C97.8185 34.583 98.9019 34.4053 100.124 34.05V35.727C98.9365 36.0737 97.7752 36.247 96.6399 36.247C95.2272 36.247 94.0572 36.0043 93.1299 35.519C92.2112 35.025 91.5179 34.2407 91.0499 33.166C90.5819 32.0913 90.3479 30.683 90.3479 28.941C90.3479 26.4797 90.8202 24.6553 91.7649 23.468C92.7095 22.2807 94.0269 21.687 95.7169 21.687C97.3635 21.687 98.6202 22.2763 99.4869 23.455C100.362 24.6337 100.8 26.4797 100.8 28.993V29.63ZM95.7039 23.169C94.6812 23.169 93.8839 23.5547 93.3119 24.326C92.7485 25.0973 92.4495 26.3973 92.4149 28.226H98.8369C98.8195 26.9693 98.6809 25.9683 98.4209 25.223C98.1695 24.4777 97.8185 23.949 97.3679 23.637C96.9172 23.325 96.3625 23.169 95.7039 23.169ZM108.729 36.247C106.779 36.247 105.31 35.6663 104.322 34.505C103.334 33.3437 102.84 31.4933 102.84 28.954C102.84 26.406 103.377 24.56 104.452 23.416C105.527 22.2633 107.13 21.687 109.262 21.687C110.224 21.687 111.104 21.791 111.901 21.999V23.728C111.078 23.52 110.28 23.416 109.509 23.416C108.443 23.416 107.581 23.5893 106.922 23.936C106.263 24.2827 105.769 24.8547 105.44 25.652C105.119 26.4493 104.959 27.5327 104.959 28.902C104.959 30.2887 105.111 31.3937 105.414 32.217C105.717 33.0403 106.164 33.6297 106.753 33.985C107.342 34.3403 108.101 34.518 109.028 34.518C109.869 34.518 110.826 34.3403 111.901 33.985V35.701C110.861 36.065 109.804 36.247 108.729 36.247ZM114.168 36V21.895H116.196V36H114.168ZM115.182 18.814C114.723 18.814 114.368 18.7013 114.116 18.476C113.874 18.2507 113.752 17.9343 113.752 17.527C113.752 17.1197 113.874 16.8033 114.116 16.578C114.368 16.344 114.723 16.227 115.182 16.227C115.633 16.227 115.98 16.344 116.222 16.578C116.474 16.8033 116.599 17.1197 116.599 17.527C116.599 17.9343 116.474 18.2507 116.222 18.476C115.98 18.7013 115.633 18.814 115.182 18.814ZM124.732 36.247C122.947 36.247 121.56 35.6577 120.572 34.479C119.584 33.2917 119.09 31.4543 119.09 28.967C119.09 26.4623 119.58 24.625 120.559 23.455C121.538 22.2763 122.929 21.687 124.732 21.687C126.526 21.687 127.913 22.2763 128.892 23.455C129.871 24.6337 130.361 26.4667 130.361 28.954C130.361 31.4413 129.867 33.2787 128.879 34.466C127.9 35.6533 126.517 36.247 124.732 36.247ZM124.732 34.596C125.495 34.596 126.136 34.4227 126.656 34.076C127.185 33.7207 127.588 33.1313 127.865 32.308C128.151 31.4847 128.294 30.3797 128.294 28.993C128.294 27.5803 128.151 26.458 127.865 25.626C127.588 24.794 127.189 24.2047 126.669 23.858C126.149 23.5113 125.503 23.338 124.732 23.338C123.961 23.338 123.315 23.5113 122.795 23.858C122.275 24.2047 121.872 24.7897 121.586 25.613C121.309 26.4277 121.17 27.5283 121.17 28.915C121.17 30.3277 121.309 31.4543 121.586 32.295C121.872 33.127 122.275 33.7207 122.795 34.076C123.315 34.4227 123.961 34.596 124.732 34.596ZM133.262 21.895H134.965L135.121 23.468H135.251C135.762 22.896 136.369 22.4583 137.071 22.155C137.773 21.843 138.527 21.687 139.333 21.687C140.633 21.687 141.651 22.0597 142.388 22.805C143.133 23.5417 143.506 24.7463 143.506 26.419V36H141.478V26.523C141.478 25.431 141.248 24.6553 140.789 24.196C140.338 23.728 139.688 23.494 138.839 23.494C138.189 23.494 137.539 23.65 136.889 23.962C136.239 24.2653 135.706 24.7463 135.29 25.405V36H133.262V21.895ZM150.911 21.687C152.081 21.687 153.039 21.8473 153.784 22.168C154.538 22.48 155.102 23 155.474 23.728C155.856 24.456 156.046 25.4397 156.046 26.679V36H154.343L154.187 34.453H154.057C153.633 35.0337 153.095 35.4757 152.445 35.779C151.795 36.0737 151.076 36.221 150.287 36.221C149.464 36.221 148.745 36.0693 148.129 35.766C147.514 35.4627 147.042 35.025 146.712 34.453C146.383 33.881 146.218 33.1963 146.218 32.399C146.218 31.1423 146.613 30.1717 147.401 29.487C148.199 28.7937 149.438 28.369 151.119 28.213L154.044 27.901V26.575C154.044 25.743 153.919 25.093 153.667 24.625C153.425 24.157 153.056 23.8277 152.562 23.637C152.077 23.4463 151.436 23.351 150.638 23.351C150.11 23.351 149.533 23.403 148.909 23.507C148.285 23.6023 147.679 23.7497 147.089 23.949V22.272C147.635 22.09 148.251 21.947 148.935 21.843C149.629 21.739 150.287 21.687 150.911 21.687ZM150.807 34.648C151.414 34.648 151.999 34.5093 152.562 34.232C153.126 33.9547 153.62 33.5083 154.044 32.893V29.292L151.249 29.578C150.227 29.682 149.477 29.9507 149 30.384C148.524 30.8087 148.285 31.411 148.285 32.191C148.285 33.0057 148.498 33.621 148.922 34.037C149.356 34.4443 149.984 34.648 150.807 34.648ZM159.541 21.895H161.244L161.4 23.78H161.543C161.977 23.1213 162.527 22.623 163.194 22.285C163.862 21.9383 164.581 21.765 165.352 21.765C165.69 21.765 166.002 21.7867 166.288 21.83V23.728C165.994 23.6847 165.647 23.663 165.248 23.663C164.538 23.663 163.84 23.845 163.155 24.209C162.479 24.5643 161.951 25.0713 161.569 25.73V36H159.541V21.895ZM174.166 36V14.992H176.194V36H174.166ZM183.716 21.687C184.886 21.687 185.844 21.8473 186.589 22.168C187.343 22.48 187.906 23 188.279 23.728C188.66 24.456 188.851 25.4397 188.851 26.679V36H187.148L186.992 34.453H186.862C186.437 35.0337 185.9 35.4757 185.25 35.779C184.6 36.0737 183.881 36.221 183.092 36.221C182.269 36.221 181.549 36.0693 180.934 35.766C180.319 35.4627 179.846 35.025 179.517 34.453C179.188 33.881 179.023 33.1963 179.023 32.399C179.023 31.1423 179.417 30.1717 180.206 29.487C181.003 28.7937 182.243 28.369 183.924 28.213L186.849 27.901V26.575C186.849 25.743 186.723 25.093 186.472 24.625C186.229 24.157 185.861 23.8277 185.367 23.637C184.882 23.4463 184.24 23.351 183.443 23.351C182.914 23.351 182.338 23.403 181.714 23.507C181.09 23.6023 180.483 23.7497 179.894 23.949V22.272C180.44 22.09 181.055 21.947 181.74 21.843C182.433 21.739 183.092 21.687 183.716 21.687ZM183.612 34.648C184.219 34.648 184.804 34.5093 185.367 34.232C185.93 33.9547 186.424 33.5083 186.849 32.893V29.292L184.054 29.578C183.031 29.682 182.282 29.9507 181.805 30.384C181.328 30.8087 181.09 31.411 181.09 32.191C181.09 33.0057 181.302 33.621 181.727 34.037C182.16 34.4443 182.789 34.648 183.612 34.648ZM201.16 21.895H203.227L196.233 41.72H194.205L196.246 36H195.635L190.669 21.895H192.827L196.961 34.193L201.16 21.895ZM210.019 36.247C208.234 36.247 206.847 35.6577 205.859 34.479C204.871 33.2917 204.377 31.4543 204.377 28.967C204.377 26.4623 204.867 24.625 205.846 23.455C206.825 22.2763 208.216 21.687 210.019 21.687C211.813 21.687 213.2 22.2763 214.179 23.455C215.158 24.6337 215.648 26.4667 215.648 28.954C215.648 31.4413 215.154 33.2787 214.166 34.466C213.187 35.6533 211.804 36.247 210.019 36.247ZM210.019 34.596C210.782 34.596 211.423 34.4227 211.943 34.076C212.472 33.7207 212.875 33.1313 213.152 32.308C213.438 31.4847 213.581 30.3797 213.581 28.993C213.581 27.5803 213.438 26.458 213.152 25.626C212.875 24.794 212.476 24.2047 211.956 23.858C211.436 23.5113 210.79 23.338 210.019 23.338C209.248 23.338 208.602 23.5113 208.082 23.858C207.562 24.2047 207.159 24.7897 206.873 25.613C206.596 26.4277 206.457 27.5283 206.457 28.915C206.457 30.3277 206.596 31.4543 206.873 32.295C207.159 33.127 207.562 33.7207 208.082 34.076C208.602 34.4227 209.248 34.596 210.019 34.596ZM222.592 36.234C221.301 36.234 220.283 35.8613 219.537 35.116C218.792 34.3707 218.419 33.1573 218.419 31.476V21.895H220.447V31.398C220.447 32.4813 220.673 33.257 221.123 33.725C221.574 34.193 222.211 34.427 223.034 34.427C223.658 34.427 224.291 34.271 224.932 33.959C225.574 33.647 226.098 33.1703 226.505 32.529V21.895H228.533V36H226.83L226.674 34.479H226.544C226.024 35.0597 225.422 35.4973 224.737 35.792C224.061 36.0867 223.346 36.234 222.592 36.234ZM237.721 34.479C238.18 34.479 238.7 34.414 239.281 34.284V36.013C238.613 36.169 237.95 36.247 237.292 36.247C235.914 36.247 234.861 35.8873 234.133 35.168C233.413 34.4487 233.054 33.322 233.054 31.788V23.585H230.519V21.895H233.054L233.379 16.76H235.082V21.895H239.073V23.585H235.082V31.476C235.082 32.5767 235.29 33.3523 235.706 33.803C236.13 34.2537 236.802 34.479 237.721 34.479Z" fill="white"/>
</svg>
