<svg width="300" height="50" viewBox="0 0 300 50" fill="none" xmlns="http://www.w3.org/2000/svg">
<rect width="300" height="50" rx="15" fill="#D9D9D9"/>
<path d="M131.923 15.76H133.964L127.529 35H124.539L118.104 15.76H120.275L126.086 33.362L131.923 15.76ZM139.867 35.247C138.081 35.247 136.695 34.6577 135.707 33.479C134.719 32.2917 134.225 30.4543 134.225 27.967C134.225 25.4623 134.714 23.625 135.694 22.455C136.673 21.2763 138.064 20.687 139.867 20.687C141.661 20.687 143.047 21.2763 144.027 22.455C145.006 23.6337 145.496 25.4667 145.496 27.954C145.496 30.4413 145.002 32.2787 144.014 33.466C143.034 34.6533 141.652 35.247 139.867 35.247ZM139.867 33.596C140.629 33.596 141.271 33.4227 141.791 33.076C142.319 32.7207 142.722 32.1313 143 31.308C143.286 30.4847 143.429 29.3797 143.429 27.993C143.429 26.5803 143.286 25.458 143 24.626C142.722 23.794 142.324 23.2047 141.804 22.858C141.284 22.5113 140.638 22.338 139.867 22.338C139.095 22.338 138.45 22.5113 137.93 22.858C137.41 23.2047 137.007 23.7897 136.721 24.613C136.443 25.4277 136.305 26.5283 136.305 27.915C136.305 29.3277 136.443 30.4543 136.721 31.295C137.007 32.127 137.41 32.7207 137.93 33.076C138.45 33.4227 139.095 33.596 139.867 33.596ZM148.397 35V13.992H150.425V35H148.397ZM159.52 33.479C159.979 33.479 160.499 33.414 161.08 33.284V35.013C160.412 35.169 159.749 35.247 159.091 35.247C157.713 35.247 156.66 34.8873 155.932 34.168C155.212 33.4487 154.853 32.322 154.853 30.788V22.585H152.318V20.895H154.853L155.178 15.76H156.881V20.895H160.872V22.585H156.881V30.476C156.881 31.5767 157.089 32.3523 157.505 32.803C157.929 33.2537 158.601 33.479 159.52 33.479ZM166.986 20.687C168.156 20.687 169.113 20.8473 169.859 21.168C170.613 21.48 171.176 22 171.549 22.728C171.93 23.456 172.121 24.4397 172.121 25.679V35H170.418L170.262 33.453H170.132C169.707 34.0337 169.17 34.4757 168.52 34.779C167.87 35.0737 167.15 35.221 166.362 35.221C165.538 35.221 164.819 35.0693 164.204 34.766C163.588 34.4627 163.116 34.025 162.787 33.453C162.457 32.881 162.293 32.1963 162.293 31.399C162.293 30.1423 162.687 29.1717 163.476 28.487C164.273 27.7937 165.512 27.369 167.194 27.213L170.119 26.901V25.575C170.119 24.743 169.993 24.093 169.742 23.625C169.499 23.157 169.131 22.8277 168.637 22.637C168.151 22.4463 167.51 22.351 166.713 22.351C166.184 22.351 165.608 22.403 164.984 22.507C164.36 22.6023 163.753 22.7497 163.164 22.949V21.272C163.71 21.09 164.325 20.947 165.01 20.843C165.703 20.739 166.362 20.687 166.986 20.687ZM166.882 33.648C167.488 33.648 168.073 33.5093 168.637 33.232C169.2 32.9547 169.694 32.5083 170.119 31.893V28.292L167.324 28.578C166.301 28.682 165.551 28.9507 165.075 29.384C164.598 29.8087 164.36 30.411 164.36 31.191C164.36 32.0057 164.572 32.621 164.997 33.037C165.43 33.4443 166.058 33.648 166.882 33.648ZM175.616 20.895H177.319L177.475 22.78H177.618C178.051 22.1213 178.601 21.623 179.269 21.285C179.936 20.9383 180.655 20.765 181.427 20.765C181.765 20.765 182.077 20.7867 182.363 20.83V22.728C182.068 22.6847 181.721 22.663 181.323 22.663C180.612 22.663 179.914 22.845 179.23 23.209C178.554 23.5643 178.025 24.0713 177.644 24.73V35H175.616V20.895Z" fill="black"/>
</svg>
