<svg width="367" height="79" viewBox="0 0 367 79" fill="none" xmlns="http://www.w3.org/2000/svg">
<path d="M1.16484 63L8.37984 15.225H16.9598L24.1748 63H17.3498L16.0498 53.25H9.28984L7.98984 63H1.16484ZM10.2648 45.84H15.0748L13.0598 29.785L12.8648 27.25H12.4748L12.2798 29.785L10.2648 45.84ZM40.176 63.52C38.1827 63.52 36.4818 63.0758 35.0735 62.1875C33.6868 61.2775 32.6252 60.0425 31.8885 58.4825C31.1735 56.9225 30.816 55.1567 30.816 53.185V25.04C30.816 23.09 31.1843 21.335 31.921 19.775C32.6793 18.215 33.7627 16.98 35.171 16.07C36.5793 15.16 38.2477 14.705 40.176 14.705C41.6277 14.705 42.9277 14.9758 44.076 15.5175C45.2243 16.0592 46.1993 16.8067 47.001 17.76C47.8243 18.6917 48.4527 19.7858 48.886 21.0425C49.3194 22.2775 49.536 23.61 49.536 25.04V31.605H42.971V25.04C42.971 24.0433 42.7652 23.2092 42.3535 22.5375C41.9418 21.8658 41.2593 21.53 40.306 21.53C39.4393 21.53 38.811 21.8767 38.421 22.57C38.031 23.2633 37.836 24.0867 37.836 25.04V53.185C37.836 54.1383 38.0418 54.9617 38.4535 55.655C38.8868 56.3483 39.5043 56.695 40.306 56.695C41.281 56.695 41.9635 56.3592 42.3535 55.6875C42.7652 55.0158 42.971 54.1817 42.971 53.185V46.62H49.536V53.185C49.536 55.135 49.1568 56.89 48.3985 58.45C47.6402 60.01 46.5569 61.245 45.1485 62.155C43.7618 63.065 42.1043 63.52 40.176 63.52ZM57.6869 63V15.225H73.7419V22.44H64.7069V35.31H71.2069V42.33H64.7069V55.785H73.7419V63H57.6869ZM90.6516 63.52C88.7232 63.52 87.1199 63.2058 85.8416 62.5775C84.5632 61.9275 83.5557 60.9958 82.8191 59.7825C82.0824 58.5692 81.5516 57.1067 81.2266 55.395C80.9232 53.6833 80.7716 51.755 80.7716 49.61L87.6616 48.96C87.6616 50 87.6941 51.0075 87.7591 51.9825C87.8457 52.9358 87.9866 53.8025 88.1816 54.5825C88.3982 55.3408 88.7016 55.9475 89.0916 56.4025C89.5032 56.8575 90.0232 57.085 90.6516 57.085C91.6916 57.085 92.4282 56.6083 92.8616 55.655C93.2949 54.68 93.5116 53.51 93.5116 52.145C93.5116 50.78 93.1541 49.3608 92.4391 47.8875C91.7241 46.4142 90.8682 45.0167 89.8716 43.695C88.1816 41.4417 86.6974 39.3508 85.4191 37.4225C84.1624 35.4942 83.1766 33.5983 82.4616 31.735C81.7682 29.8717 81.4216 27.9217 81.4216 25.885C81.4216 24.2817 81.6274 22.8083 82.0391 21.465C82.4507 20.1 83.0466 18.9192 83.8266 17.9225C84.6282 16.9042 85.5924 16.1133 86.7191 15.55C87.8457 14.9867 89.1349 14.705 90.5866 14.705C92.3849 14.705 93.9016 15.0083 95.1366 15.615C96.3932 16.2217 97.4007 17.0883 98.1591 18.215C98.9391 19.3417 99.5024 20.685 99.8491 22.245C100.217 23.7833 100.402 25.495 100.402 27.38L93.5116 28.03C93.5116 27.2283 93.4682 26.4267 93.3816 25.625C93.3166 24.8017 93.1866 24.0542 92.9916 23.3825C92.7966 22.7108 92.5149 22.1692 92.1466 21.7575C91.7782 21.3458 91.3016 21.14 90.7166 21.14C89.8066 21.14 89.1782 21.53 88.8316 22.31C88.4849 23.0683 88.3116 24.1517 88.3116 25.56C88.3116 27.38 88.7991 29.135 89.7741 30.825C90.7491 32.515 92.0599 34.4867 93.7066 36.74C95.6782 39.405 97.2816 41.8533 98.5166 44.085C99.7732 46.3167 100.402 48.7867 100.402 51.495C100.402 53.2067 100.217 54.7992 99.8491 56.2725C99.4807 57.7242 98.8957 58.9917 98.0941 60.075C97.3141 61.1583 96.3066 62.0033 95.0716 62.61C93.8582 63.2167 92.3849 63.52 90.6516 63.52ZM115.864 63.52C113.936 63.52 112.333 63.2058 111.054 62.5775C109.776 61.9275 108.769 60.9958 108.032 59.7825C107.295 58.5692 106.764 57.1067 106.439 55.395C106.136 53.6833 105.984 51.755 105.984 49.61L112.874 48.96C112.874 50 112.907 51.0075 112.972 51.9825C113.059 52.9358 113.199 53.8025 113.394 54.5825C113.611 55.3408 113.914 55.9475 114.304 56.4025C114.716 56.8575 115.236 57.085 115.864 57.085C116.904 57.085 117.641 56.6083 118.074 55.655C118.508 54.68 118.724 53.51 118.724 52.145C118.724 50.78 118.367 49.3608 117.652 47.8875C116.937 46.4142 116.081 45.0167 115.084 43.695C113.394 41.4417 111.91 39.3508 110.632 37.4225C109.375 35.4942 108.389 33.5983 107.674 31.735C106.981 29.8717 106.634 27.9217 106.634 25.885C106.634 24.2817 106.84 22.8083 107.252 21.465C107.664 20.1 108.259 18.9192 109.039 17.9225C109.841 16.9042 110.805 16.1133 111.932 15.55C113.059 14.9867 114.348 14.705 115.799 14.705C117.598 14.705 119.114 15.0083 120.349 15.615C121.606 16.2217 122.614 17.0883 123.372 18.215C124.152 19.3417 124.715 20.685 125.062 22.245C125.43 23.7833 125.614 25.495 125.614 27.38L118.724 28.03C118.724 27.2283 118.681 26.4267 118.594 25.625C118.529 24.8017 118.399 24.0542 118.204 23.3825C118.009 22.7108 117.728 22.1692 117.359 21.7575C116.991 21.3458 116.514 21.14 115.929 21.14C115.019 21.14 114.391 21.53 114.044 22.31C113.698 23.0683 113.524 24.1517 113.524 25.56C113.524 27.38 114.012 29.135 114.987 30.825C115.962 32.515 117.273 34.4867 118.919 36.74C120.891 39.405 122.494 41.8533 123.729 44.085C124.986 46.3167 125.614 48.7867 125.614 51.495C125.614 53.2067 125.43 54.7992 125.062 56.2725C124.694 57.7242 124.109 58.9917 123.307 60.075C122.527 61.1583 121.519 62.0033 120.284 62.61C119.071 63.2167 117.598 63.52 115.864 63.52ZM141.662 63.52C139.712 63.52 138.033 63.065 136.625 62.155C135.238 61.245 134.166 60.01 133.407 58.45C132.671 56.89 132.302 55.135 132.302 53.185V25.04C132.302 23.0683 132.671 21.3133 133.407 19.775C134.166 18.215 135.238 16.98 136.625 16.07C138.033 15.16 139.712 14.705 141.662 14.705C143.612 14.705 145.281 15.16 146.667 16.07C148.076 16.98 149.148 18.215 149.885 19.775C150.643 21.335 151.022 23.09 151.022 25.04V53.185C151.022 55.135 150.643 56.89 149.885 58.45C149.148 60.01 148.076 61.245 146.667 62.155C145.281 63.065 143.612 63.52 141.662 63.52ZM141.662 56.695C142.529 56.695 143.136 56.3375 143.482 55.6225C143.829 54.8858 144.002 54.0733 144.002 53.185V25.04C144.002 24.1517 143.818 23.35 143.45 22.635C143.082 21.8983 142.486 21.53 141.662 21.53C140.861 21.53 140.265 21.8983 139.875 22.635C139.507 23.35 139.322 24.1517 139.322 25.04V53.185C139.322 54.0733 139.507 54.8858 139.875 55.6225C140.243 56.3375 140.839 56.695 141.662 56.695ZM172.453 63V15.225H179.603C181.856 15.225 183.763 15.5933 185.323 16.33C186.883 17.0667 188.139 18.3233 189.093 20.1C190.046 21.8767 190.728 24.3142 191.14 27.4125C191.573 30.5108 191.79 34.4217 191.79 39.145C191.79 43.89 191.573 47.8117 191.14 50.91C190.728 53.9867 190.046 56.4133 189.093 58.19C188.139 59.945 186.883 61.1908 185.323 61.9275C183.763 62.6425 181.856 63 179.603 63H172.453ZM179.473 55.98C181.206 55.98 182.43 55.2975 183.145 53.9325C183.86 52.5675 184.293 50.6175 184.445 48.0825C184.597 45.5475 184.673 42.5358 184.673 39.0475C184.673 35.5158 184.597 32.5042 184.445 30.0125C184.293 27.4992 183.849 25.5817 183.113 24.26C182.398 22.9167 181.184 22.245 179.473 22.245V55.98ZM199.887 63V15.225H215.942V22.44H206.907V35.31H213.407V42.33H206.907V55.785H215.942V63H199.887ZM237.681 63V15.225H244.831C247.084 15.225 248.991 15.5933 250.551 16.33C252.111 17.0667 253.368 18.3233 254.321 20.1C255.274 21.8767 255.957 24.3142 256.369 27.4125C256.802 30.5108 257.019 34.4217 257.019 39.145C257.019 43.89 256.802 47.8117 256.369 50.91C255.957 53.9867 255.274 56.4133 254.321 58.19C253.368 59.945 252.111 61.1908 250.551 61.9275C248.991 62.6425 247.084 63 244.831 63H237.681ZM244.701 55.98C246.434 55.98 247.659 55.2975 248.374 53.9325C249.089 52.5675 249.522 50.6175 249.674 48.0825C249.825 45.5475 249.901 42.5358 249.901 39.0475C249.901 35.5158 249.825 32.5042 249.674 30.0125C249.522 27.4992 249.078 25.5817 248.341 24.26C247.626 22.9167 246.413 22.245 244.701 22.245V55.98ZM263.653 63L270.868 15.225H279.448L286.663 63H279.838L278.538 53.25H271.778L270.478 63H263.653ZM272.753 45.84H277.563L275.548 29.785L275.353 27.25H274.963L274.768 29.785L272.753 45.84ZM293.629 63V15.225H300.779C303.033 15.225 304.939 15.5933 306.499 16.33C308.059 17.0667 309.316 18.3233 310.269 20.1C311.223 21.8767 311.905 24.3142 312.317 27.4125C312.75 30.5108 312.967 34.4217 312.967 39.145C312.967 43.89 312.75 47.8117 312.317 50.91C311.905 53.9867 311.223 56.4133 310.269 58.19C309.316 59.945 308.059 61.1908 306.499 61.9275C304.939 62.6425 303.033 63 300.779 63H293.629ZM300.649 55.98C302.383 55.98 303.607 55.2975 304.322 53.9325C305.037 52.5675 305.47 50.6175 305.622 48.0825C305.773 45.5475 305.849 42.5358 305.849 39.0475C305.849 35.5158 305.773 32.5042 305.622 30.0125C305.47 27.4992 305.026 25.5817 304.289 24.26C303.574 22.9167 302.361 22.245 300.649 22.245V55.98ZM330.099 63.52C328.149 63.52 326.47 63.065 325.061 62.155C323.675 61.245 322.602 60.01 321.844 58.45C321.107 56.89 320.739 55.135 320.739 53.185V25.04C320.739 23.0683 321.107 21.3133 321.844 19.775C322.602 18.215 323.675 16.98 325.061 16.07C326.47 15.16 328.149 14.705 330.099 14.705C332.049 14.705 333.717 15.16 335.104 16.07C336.512 16.98 337.585 18.215 338.321 19.775C339.08 21.335 339.459 23.09 339.459 25.04V53.185C339.459 55.135 339.08 56.89 338.321 58.45C337.585 60.01 336.512 61.245 335.104 62.155C333.717 63.065 332.049 63.52 330.099 63.52ZM330.099 56.695C330.966 56.695 331.572 56.3375 331.919 55.6225C332.266 54.8858 332.439 54.0733 332.439 53.185V25.04C332.439 24.1517 332.255 23.35 331.886 22.635C331.518 21.8983 330.922 21.53 330.099 21.53C329.297 21.53 328.701 21.8983 328.311 22.635C327.943 23.35 327.759 24.1517 327.759 25.04V53.185C327.759 54.0733 327.943 54.8858 328.311 55.6225C328.68 56.3375 329.276 56.695 330.099 56.695ZM356.06 63.52C354.131 63.52 352.528 63.2058 351.25 62.5775C349.971 61.9275 348.964 60.9958 348.227 59.7825C347.491 58.5692 346.96 57.1067 346.635 55.395C346.331 53.6833 346.18 51.755 346.18 49.61L353.07 48.96C353.07 50 353.102 51.0075 353.167 51.9825C353.254 52.9358 353.395 53.8025 353.59 54.5825C353.806 55.3408 354.11 55.9475 354.5 56.4025C354.911 56.8575 355.431 57.085 356.06 57.085C357.1 57.085 357.836 56.6083 358.27 55.655C358.703 54.68 358.92 53.51 358.92 52.145C358.92 50.78 358.562 49.3608 357.847 47.8875C357.132 46.4142 356.276 45.0167 355.28 43.695C353.59 41.4417 352.106 39.3508 350.827 37.4225C349.571 35.4942 348.585 33.5983 347.87 31.735C347.176 29.8717 346.83 27.9217 346.83 25.885C346.83 24.2817 347.036 22.8083 347.447 21.465C347.859 20.1 348.455 18.9192 349.235 17.9225C350.036 16.9042 351.001 16.1133 352.127 15.55C353.254 14.9867 354.543 14.705 355.995 14.705C357.793 14.705 359.31 15.0083 360.545 15.615C361.801 16.2217 362.809 17.0883 363.567 18.215C364.347 19.3417 364.911 20.685 365.257 22.245C365.626 23.7833 365.81 25.495 365.81 27.38L358.92 28.03C358.92 27.2283 358.876 26.4267 358.79 25.625C358.725 24.8017 358.595 24.0542 358.4 23.3825C358.205 22.7108 357.923 22.1692 357.555 21.7575C357.186 21.3458 356.71 21.14 356.125 21.14C355.215 21.14 354.586 21.53 354.24 22.31C353.893 23.0683 353.72 24.1517 353.72 25.56C353.72 27.38 354.207 29.135 355.182 30.825C356.157 32.515 357.468 34.4867 359.115 36.74C361.086 39.405 362.69 41.8533 363.925 44.085C365.181 46.3167 365.81 48.7867 365.81 51.495C365.81 53.2067 365.626 54.7992 365.257 56.2725C364.889 57.7242 364.304 58.9917 363.502 60.075C362.722 61.1583 361.715 62.0033 360.48 62.61C359.266 63.2167 357.793 63.52 356.06 63.52Z" fill="black"/>
<line x1="0.000392961" y1="76" x2="367.001" y2="76.0721" stroke="#9600DD" stroke-width="4"/>
</svg>
