<svg width="634" height="80" viewBox="0 0 634 80" fill="none" xmlns="http://www.w3.org/2000/svg">
<path d="M12.635 63.52C10.6417 63.52 8.94083 63.0758 7.5325 62.1875C6.14583 61.2775 5.08417 60.0425 4.3475 58.4825C3.6325 56.9225 3.275 55.1567 3.275 53.185V25.04C3.275 23.09 3.64333 21.335 4.38 19.775C5.13833 18.215 6.22167 16.98 7.63 16.07C9.03833 15.16 10.7067 14.705 12.635 14.705C14.0867 14.705 15.3867 14.9758 16.535 15.5175C17.6833 16.0592 18.6583 16.8067 19.46 17.76C20.2833 18.6917 20.9117 19.7858 21.345 21.0425C21.7783 22.2775 21.995 23.61 21.995 25.04V31.605H15.43V25.04C15.43 24.0433 15.2242 23.2092 14.8125 22.5375C14.4008 21.8658 13.7183 21.53 12.765 21.53C11.8983 21.53 11.27 21.8767 10.88 22.57C10.49 23.2633 10.295 24.0867 10.295 25.04V53.185C10.295 54.1383 10.5008 54.9617 10.9125 55.655C11.3458 56.3483 11.9633 56.695 12.765 56.695C13.74 56.695 14.4225 56.3592 14.8125 55.6875C15.2242 55.0158 15.43 54.1817 15.43 53.185V46.62H21.995V53.185C21.995 55.135 21.6158 56.89 20.8575 58.45C20.0992 60.01 19.0158 61.245 17.6075 62.155C16.2208 63.065 14.5633 63.52 12.635 63.52ZM39.1809 63.52C37.2309 63.52 35.5517 63.065 34.1434 62.155C32.7567 61.245 31.6842 60.01 30.9259 58.45C30.1892 56.89 29.8209 55.135 29.8209 53.185V25.04C29.8209 23.0683 30.1892 21.3133 30.9259 19.775C31.6842 18.215 32.7567 16.98 34.1434 16.07C35.5517 15.16 37.2309 14.705 39.1809 14.705C41.1309 14.705 42.7992 15.16 44.1859 16.07C45.5942 16.98 46.6667 18.215 47.4034 19.775C48.1617 21.335 48.5409 23.09 48.5409 25.04V53.185C48.5409 55.135 48.1617 56.89 47.4034 58.45C46.6667 60.01 45.5942 61.245 44.1859 62.155C42.7992 63.065 41.1309 63.52 39.1809 63.52ZM39.1809 56.695C40.0476 56.695 40.6542 56.3375 41.0009 55.6225C41.3476 54.8858 41.5209 54.0733 41.5209 53.185V25.04C41.5209 24.1517 41.3367 23.35 40.9684 22.635C40.6001 21.8983 40.0042 21.53 39.1809 21.53C38.3792 21.53 37.7834 21.8983 37.3934 22.635C37.0251 23.35 36.8409 24.1517 36.8409 25.04V53.185C36.8409 54.0733 37.0251 54.8858 37.3934 55.6225C37.7617 56.3375 38.3576 56.695 39.1809 56.695ZM56.6918 63V15.225H63.2568L69.7568 40.12L70.3418 42.33H70.7318V15.225H77.1668V63H71.2518L64.1018 38.105L63.5168 35.895H63.1268V63H56.6918ZM90.2663 63V22.44H83.6363V15.225H103.916V22.44H97.2863V63H90.2663ZM110.418 63V15.225H117.438C121.642 15.225 124.74 16.395 126.733 18.735C128.727 21.0533 129.723 24.4767 129.723 29.005C129.723 31.6917 129.247 34.0208 128.293 35.9925C127.362 37.9425 126.224 39.3725 124.881 40.2825L129.658 63H122.638L118.673 42.85H117.438V63H110.418ZM117.438 36.35C118.738 36.35 119.768 36.0683 120.526 35.505C121.284 34.92 121.826 34.0967 122.151 33.035C122.476 31.9733 122.638 30.7167 122.638 29.265C122.638 26.99 122.259 25.2458 121.501 24.0325C120.764 22.7975 119.41 22.18 117.438 22.18V36.35ZM145.936 63.52C143.986 63.52 142.307 63.065 140.898 62.155C139.512 61.245 138.439 60.01 137.681 58.45C136.944 56.89 136.576 55.135 136.576 53.185V25.04C136.576 23.0683 136.944 21.3133 137.681 19.775C138.439 18.215 139.512 16.98 140.898 16.07C142.307 15.16 143.986 14.705 145.936 14.705C147.886 14.705 149.554 15.16 150.941 16.07C152.349 16.98 153.422 18.215 154.158 19.775C154.917 21.335 155.296 23.09 155.296 25.04V53.185C155.296 55.135 154.917 56.89 154.158 58.45C153.422 60.01 152.349 61.245 150.941 62.155C149.554 63.065 147.886 63.52 145.936 63.52ZM145.936 56.695C146.802 56.695 147.409 56.3375 147.756 55.6225C148.102 54.8858 148.276 54.0733 148.276 53.185V25.04C148.276 24.1517 148.092 23.35 147.723 22.635C147.355 21.8983 146.759 21.53 145.936 21.53C145.134 21.53 144.538 21.8983 144.148 22.635C143.78 23.35 143.596 24.1517 143.596 25.04V53.185C143.596 54.0733 143.78 54.8858 144.148 55.6225C144.517 56.3375 145.112 56.695 145.936 56.695ZM163.447 63V15.225H170.467V56.5H179.762V63H163.447ZM185.867 63V15.225H201.922V22.44H192.887V35.31H199.387V42.33H192.887V55.785H201.922V63H185.867ZM223.661 63V15.225H230.811C233.064 15.225 234.971 15.5933 236.531 16.33C238.091 17.0667 239.347 18.3233 240.301 20.1C241.254 21.8767 241.936 24.3142 242.348 27.4125C242.781 30.5108 242.998 34.4217 242.998 39.145C242.998 43.89 242.781 47.8117 242.348 50.91C241.936 53.9867 241.254 56.4133 240.301 58.19C239.347 59.945 238.091 61.1908 236.531 61.9275C234.971 62.6425 233.064 63 230.811 63H223.661ZM230.681 55.98C232.414 55.98 233.638 55.2975 234.353 53.9325C235.068 52.5675 235.501 50.6175 235.653 48.0825C235.805 45.5475 235.881 42.5358 235.881 39.0475C235.881 35.5158 235.805 32.5042 235.653 30.0125C235.501 27.4992 235.057 25.5817 234.321 24.26C233.606 22.9167 232.392 22.245 230.681 22.245V55.98ZM260.13 63.52C258.18 63.52 256.501 63.065 255.093 62.155C253.706 61.245 252.633 60.01 251.875 58.45C251.138 56.89 250.77 55.135 250.77 53.185V25.04C250.77 23.0683 251.138 21.3133 251.875 19.775C252.633 18.215 253.706 16.98 255.093 16.07C256.501 15.16 258.18 14.705 260.13 14.705C262.08 14.705 263.748 15.16 265.135 16.07C266.543 16.98 267.616 18.215 268.353 19.775C269.111 21.335 269.49 23.09 269.49 25.04V53.185C269.49 55.135 269.111 56.89 268.353 58.45C267.616 60.01 266.543 61.245 265.135 62.155C263.748 63.065 262.08 63.52 260.13 63.52ZM260.13 56.695C260.997 56.695 261.603 56.3375 261.95 55.6225C262.297 54.8858 262.47 54.0733 262.47 53.185V25.04C262.47 24.1517 262.286 23.35 261.918 22.635C261.549 21.8983 260.953 21.53 260.13 21.53C259.328 21.53 258.733 21.8983 258.343 22.635C257.974 23.35 257.79 24.1517 257.79 25.04V53.185C257.79 54.0733 257.974 54.8858 258.343 55.6225C258.711 56.3375 259.307 56.695 260.13 56.695ZM290.92 63V15.225H298.07C300.497 15.225 302.588 15.6583 304.343 16.525C306.119 17.37 307.484 18.7025 308.438 20.5225C309.413 22.3425 309.9 24.6933 309.9 27.575C309.9 29.8717 309.597 31.8758 308.99 33.5875C308.405 35.2992 307.257 36.6967 305.545 37.78C307.279 38.7333 308.524 40.25 309.283 42.33C310.041 44.3883 310.42 46.7717 310.42 49.48C310.42 52.145 309.987 54.4958 309.12 56.5325C308.275 58.5692 307.019 60.1617 305.35 61.31C303.704 62.4367 301.667 63 299.24 63H290.92ZM297.94 56.045C300.064 56.045 301.461 55.4167 302.133 54.16C302.804 52.8817 303.14 51.0617 303.14 48.7C303.14 46.295 302.804 44.475 302.133 43.24C301.461 41.9833 300.064 41.355 297.94 41.355V56.045ZM297.94 34.92C299.912 34.92 301.266 34.3783 302.003 33.295C302.761 32.2117 303.14 30.6083 303.14 28.485C303.14 26.34 302.75 24.7583 301.97 23.74C301.212 22.7 299.869 22.18 297.94 22.18V34.92ZM317.847 63V15.225H324.867C329.07 15.225 332.169 16.395 334.162 18.735C336.155 21.0533 337.152 24.4767 337.152 29.005C337.152 31.6917 336.675 34.0208 335.722 35.9925C334.79 37.9425 333.653 39.3725 332.31 40.2825L337.087 63H330.067L326.102 42.85H324.867V63H317.847ZM324.867 36.35C326.167 36.35 327.196 36.0683 327.955 35.505C328.713 34.92 329.255 34.0967 329.58 33.035C329.905 31.9733 330.067 30.7167 330.067 29.265C330.067 26.99 329.688 25.2458 328.93 24.0325C328.193 22.7975 326.839 22.18 324.867 22.18V36.35ZM342.867 63L350.082 15.225H358.662L365.877 63H359.052L357.752 53.25H350.992L349.692 63H342.867ZM351.967 45.84H356.777L354.762 29.785L354.567 27.25H354.177L353.982 29.785L351.967 45.84ZM381.878 63.52C379.885 63.52 378.184 63.0758 376.776 62.1875C375.389 61.2775 374.327 60.0425 373.591 58.4825C372.876 56.9225 372.518 55.1567 372.518 53.185V25.04C372.518 23.09 372.886 21.335 373.623 19.775C374.381 18.215 375.465 16.98 376.873 16.07C378.281 15.16 379.95 14.705 381.878 14.705C383.33 14.705 384.63 14.9758 385.778 15.5175C386.926 16.0592 387.901 16.8067 388.703 17.76C389.526 18.6917 390.155 19.7858 390.588 21.0425C391.021 22.2775 391.238 23.61 391.238 25.04V31.605H384.673V25.04C384.673 24.0433 384.467 23.2092 384.056 22.5375C383.644 21.8658 382.961 21.53 382.008 21.53C381.141 21.53 380.513 21.8767 380.123 22.57C379.733 23.2633 379.538 24.0867 379.538 25.04V53.185C379.538 54.1383 379.744 54.9617 380.156 55.655C380.589 56.3483 381.206 56.695 382.008 56.695C382.983 56.695 383.666 56.3592 384.056 55.6875C384.467 55.0158 384.673 54.1817 384.673 53.185V46.62H391.238V53.185C391.238 55.135 390.859 56.89 390.101 58.45C389.342 60.01 388.259 61.245 386.851 62.155C385.464 63.065 383.806 63.52 381.878 63.52ZM385.681 64.9825C386.634 64.9825 387.501 65.2967 388.281 65.925C389.061 66.575 389.451 67.6583 389.451 69.175C389.451 70.5833 389.05 71.7317 388.248 72.62C387.468 73.53 386.45 74.1908 385.193 74.6025C383.958 75.0142 382.658 75.22 381.293 75.22C380.123 75.22 378.931 75.0358 377.718 74.6675C376.526 74.3208 375.649 73.9417 375.086 73.53L376.776 69.955C377.166 70.2367 377.837 70.5725 378.791 70.9625C379.766 71.3525 380.719 71.5475 381.651 71.5475C382.604 71.5475 383.416 71.385 384.088 71.06C384.76 70.735 385.096 70.1717 385.096 69.37C385.096 68.6983 384.911 68.2433 384.543 68.005C384.196 67.7667 383.817 67.6475 383.406 67.6475C382.431 67.6475 381.726 68.0158 381.293 68.7525L377.751 67.5825L379.668 63H383.536L382.008 66.51H381.716C381.889 66.0333 382.376 65.6542 383.178 65.3725C383.98 65.1125 384.814 64.9825 385.681 64.9825ZM408.424 63.52C406.474 63.52 404.795 63.065 403.387 62.155C402 61.245 400.927 60.01 400.169 58.45C399.432 56.89 399.064 55.135 399.064 53.185V25.04C399.064 23.0683 399.432 21.3133 400.169 19.775C400.927 18.215 402 16.98 403.387 16.07C404.795 15.16 406.474 14.705 408.424 14.705C410.374 14.705 412.042 15.16 413.429 16.07C414.837 16.98 415.91 18.215 416.647 19.775C417.405 21.335 417.784 23.09 417.784 25.04V53.185C417.784 55.135 417.405 56.89 416.647 58.45C415.91 60.01 414.837 61.245 413.429 62.155C412.042 63.065 410.374 63.52 408.424 63.52ZM408.424 56.695C409.291 56.695 409.897 56.3375 410.244 55.6225C410.591 54.8858 410.764 54.0733 410.764 53.185V25.04C410.764 24.1517 410.58 23.35 410.212 22.635C409.843 21.8983 409.247 21.53 408.424 21.53C407.622 21.53 407.027 21.8983 406.637 22.635C406.268 23.35 406.084 24.1517 406.084 25.04V53.185C406.084 54.0733 406.268 54.8858 406.637 55.6225C407.005 56.3375 407.601 56.695 408.424 56.695ZM439.214 63V15.225H446.234C450.438 15.225 453.536 16.395 455.529 18.735C457.523 21.0533 458.519 24.4767 458.519 29.005C458.519 31.6917 458.043 34.0208 457.089 35.9925C456.158 37.9425 455.02 39.3725 453.677 40.2825L458.454 63H451.434L447.469 42.85H446.234V63H439.214ZM446.234 36.35C447.534 36.35 448.563 36.0683 449.322 35.505C450.08 34.92 450.622 34.0967 450.947 33.035C451.272 31.9733 451.434 30.7167 451.434 29.265C451.434 26.99 451.055 25.2458 450.297 24.0325C449.56 22.7975 448.206 22.18 446.234 22.18V36.35ZM474.732 63.52C472.782 63.52 471.103 63.065 469.694 62.155C468.308 61.245 467.235 60.01 466.477 58.45C465.74 56.89 465.372 55.135 465.372 53.185V25.04C465.372 23.0683 465.74 21.3133 466.477 19.775C467.235 18.215 468.308 16.98 469.694 16.07C471.103 15.16 472.782 14.705 474.732 14.705C476.682 14.705 478.35 15.16 479.737 16.07C481.145 16.98 482.218 18.215 482.954 19.775C483.713 21.335 484.092 23.09 484.092 25.04V53.185C484.092 55.135 483.713 56.89 482.954 58.45C482.218 60.01 481.145 61.245 479.737 62.155C478.35 63.065 476.682 63.52 474.732 63.52ZM474.732 56.695C475.598 56.695 476.205 56.3375 476.552 55.6225C476.898 54.8858 477.072 54.0733 477.072 53.185V25.04C477.072 24.1517 476.888 23.35 476.519 22.635C476.151 21.8983 475.555 21.53 474.732 21.53C473.93 21.53 473.334 21.8983 472.944 22.635C472.576 23.35 472.392 24.1517 472.392 25.04V53.185C472.392 54.0733 472.576 54.8858 472.944 55.6225C473.313 56.3375 473.908 56.695 474.732 56.695ZM492.243 63V15.225H499.393C501.819 15.225 503.91 15.6583 505.665 16.525C507.442 17.37 508.807 18.7025 509.76 20.5225C510.735 22.3425 511.223 24.6933 511.223 27.575C511.223 29.8717 510.919 31.8758 510.313 33.5875C509.728 35.2992 508.579 36.6967 506.868 37.78C508.601 38.7333 509.847 40.25 510.605 42.33C511.363 44.3883 511.743 46.7717 511.743 49.48C511.743 52.145 511.309 54.4958 510.443 56.5325C509.598 58.5692 508.341 60.1617 506.673 61.31C505.026 62.4367 502.989 63 500.563 63H492.243ZM499.263 56.045C501.386 56.045 502.783 55.4167 503.455 54.16C504.127 52.8817 504.463 51.0617 504.463 48.7C504.463 46.295 504.127 44.475 503.455 43.24C502.783 41.9833 501.386 41.355 499.263 41.355V56.045ZM499.263 34.92C501.234 34.92 502.588 34.3783 503.325 33.295C504.083 32.2117 504.463 30.6083 504.463 28.485C504.463 26.34 504.073 24.7583 503.293 23.74C502.534 22.7 501.191 22.18 499.263 22.18V34.92ZM528.204 63.52C526.254 63.52 524.575 63.065 523.167 62.155C521.78 61.245 520.708 60.01 519.949 58.45C519.213 56.89 518.844 55.135 518.844 53.185V25.04C518.844 23.0683 519.213 21.3133 519.949 19.775C520.708 18.215 521.78 16.98 523.167 16.07C524.575 15.16 526.254 14.705 528.204 14.705C530.154 14.705 531.823 15.16 533.209 16.07C534.618 16.98 535.69 18.215 536.427 19.775C537.185 21.335 537.564 23.09 537.564 25.04V53.185C537.564 55.135 537.185 56.89 536.427 58.45C535.69 60.01 534.618 61.245 533.209 62.155C531.823 63.065 530.154 63.52 528.204 63.52ZM528.204 56.695C529.071 56.695 529.678 56.3375 530.024 55.6225C530.371 54.8858 530.544 54.0733 530.544 53.185V25.04C530.544 24.1517 530.36 23.35 529.992 22.635C529.624 21.8983 529.028 21.53 528.204 21.53C527.403 21.53 526.807 21.8983 526.417 22.635C526.049 23.35 525.864 24.1517 525.864 25.04V53.185C525.864 54.0733 526.049 54.8858 526.417 55.6225C526.785 56.3375 527.381 56.695 528.204 56.695ZM525.019 11L529.374 5.15H536.199L530.089 11H525.019ZM550.395 63V22.44H543.765V15.225H564.045V22.44H557.415V63H550.395ZM570.547 63V15.225H577.567V63H570.547ZM595.083 63.52C593.09 63.52 591.389 63.0758 589.981 62.1875C588.594 61.2775 587.532 60.0425 586.796 58.4825C586.081 56.9225 585.723 55.1567 585.723 53.185V25.04C585.723 23.09 586.092 21.335 586.828 19.775C587.587 18.215 588.67 16.98 590.078 16.07C591.487 15.16 593.155 14.705 595.083 14.705C596.535 14.705 597.835 14.9758 598.983 15.5175C600.132 16.0592 601.107 16.8067 601.908 17.76C602.732 18.6917 603.36 19.7858 603.793 21.0425C604.227 22.2775 604.443 23.61 604.443 25.04V31.605H597.878V25.04C597.878 24.0433 597.672 23.2092 597.261 22.5375C596.849 21.8658 596.167 21.53 595.213 21.53C594.347 21.53 593.718 21.8767 593.328 22.57C592.938 23.2633 592.743 24.0867 592.743 25.04V53.185C592.743 54.1383 592.949 54.9617 593.361 55.655C593.794 56.3483 594.412 56.695 595.213 56.695C596.188 56.695 596.871 56.3592 597.261 55.6875C597.672 55.0158 597.878 54.1817 597.878 53.185V46.62H604.443V53.185C604.443 55.135 604.064 56.89 603.306 58.45C602.547 60.01 601.464 61.245 600.056 62.155C598.669 63.065 597.012 63.52 595.083 63.52ZM621.629 63.52C619.679 63.52 618 63.065 616.592 62.155C615.205 61.245 614.132 60.01 613.374 58.45C612.637 56.89 612.269 55.135 612.269 53.185V25.04C612.269 23.0683 612.637 21.3133 613.374 19.775C614.132 18.215 615.205 16.98 616.592 16.07C618 15.16 619.679 14.705 621.629 14.705C623.579 14.705 625.247 15.16 626.634 16.07C628.042 16.98 629.115 18.215 629.852 19.775C630.61 21.335 630.989 23.09 630.989 25.04V53.185C630.989 55.135 630.61 56.89 629.852 58.45C629.115 60.01 628.042 61.245 626.634 62.155C625.247 63.065 623.579 63.52 621.629 63.52ZM621.629 56.695C622.496 56.695 623.102 56.3375 623.449 55.6225C623.796 54.8858 623.969 54.0733 623.969 53.185V25.04C623.969 24.1517 623.785 23.35 623.417 22.635C623.048 21.8983 622.452 21.53 621.629 21.53C620.827 21.53 620.232 21.8983 619.842 22.635C619.473 23.35 619.289 24.1517 619.289 25.04V53.185C619.289 54.0733 619.473 54.8858 619.842 55.6225C620.21 56.3375 620.806 56.695 621.629 56.695Z" fill="black"/>
<line x1="0.993776" y1="77.9697" x2="633.994" y2="75.9998" stroke="#9600DD" stroke-width="4"/>
</svg>
